<?xml version="1.0" standalone="no"?>
<!DOCTYPE svg PUBLIC "-//W3C//DTD SVG 1.1//EN" "http://www.w3.org/Graphics/SVG/1.1/DTD/svg11.dtd" >
<svg xmlns="http://www.w3.org/2000/svg" xmlns:xlink="http://www.w3.org/1999/xlink" version="1.1">
<metadata>
Created by FontForge 20201107 at Mon Aug  9 03:09:54 2021
 By 
Copyright (c) 2017 by Rajesh Rajput. All rights reserved.
</metadata>
<defs>
<font id="Thunder-BoldLC" horiz-adv-x="364" >
  <font-face 
    font-family="Thunder"
    font-weight="700"
    font-stretch="normal"
    units-per-em="1000"
    panose-1="0 0 0 0 0 0 0 0 0 0"
    ascent="800"
    descent="-200"
    x-height="510"
    cap-height="700"
    bbox="-88 -255 974 897"
    underline-thickness="50"
    underline-position="-125"
    unicode-range="U+000D-FB02"
  />
<missing-glyph horiz-adv-x="511" 
d="M18 700h474v-700h-474v700zM255 391l157 259h-313zM68 83l162 267l-162 267v-534zM442 83v534l-162 -267zM99 50h313l-157 259z" />
    <glyph glyph-name=".notdef" horiz-adv-x="511" 
d="M18 700h474v-700h-474v700zM255 391l157 259h-313zM68 83l162 267l-162 267v-534zM442 83v534l-162 -267zM99 50h313l-157 259z" />
    <glyph glyph-name=".null" horiz-adv-x="0" 
 />
    <glyph glyph-name=".null" horiz-adv-x="0" 
 />
    <glyph glyph-name="uni000D" unicode="&#xd;" horiz-adv-x="250" 
 />
    <glyph glyph-name="space" unicode=" " horiz-adv-x="170" 
 />
    <glyph glyph-name="exclam" unicode="!" horiz-adv-x="195" 
d="M167 700v-100l-16 -444h-108l-16 444v100h140zM26 70q0 35 18 54.5t53 19.5q34 0 52 -20t18 -55t-17.5 -54.5t-52.5 -19.5t-53 19.5t-18 55.5z" />
    <glyph glyph-name="quotedbl" unicode="&#x22;" horiz-adv-x="268" 
d="M122 650l-9 -216h-85l-9 216v70h103v-70zM249 650l-9 -216h-85l-9 216v70h103v-70z" />
    <glyph glyph-name="numbersign" unicode="#" horiz-adv-x="453" 
d="M101 227h-82v87h87l4 72h-91v87h96l13 227h95l-13 -227h47l13 227h95l-13 -227h82v-87h-87l-4 -72h91v-87h-96l-13 -227h-95l13 227h-47l-13 -227h-95zM248 314l4 72h-47l-4 -72h47z" />
    <glyph glyph-name="dollar" unicode="$" horiz-adv-x="394" 
d="M237 452v85q0 51 -40 51q-39 0 -39 -51v-47q0 -16 3 -27.5t12 -21.5t26.5 -20.5t46.5 -24.5l34 -15q28 -13 47 -29t30.5 -38.5t16.5 -52.5t5 -71v-16q0 -72 -33 -117.5t-93 -60.5l7 -94h-126l7 94q-61 14 -93 58.5t-32 119.5v74h140v-85q0 -51 41 -51t41 50v51
q0 16 -3 27t-11.5 21t-25 20t-43.5 23l-38 17q-28 13 -47 29.5t-30.5 39.5t-16.5 53.5t-5 71.5v12q0 74 31.5 118.5t91.5 58.5l-7 95h126l-7 -96q60 -14 92 -59t32 -117v-75h-140z" />
    <glyph glyph-name="percent" unicode="%" horiz-adv-x="685" 
d="M15 541q0 37 7.5 68t24 53.5t43 35t64.5 12.5q39 0 66 -12.5t44 -35t25 -53.5t8 -68v-72q0 -37 -8 -68t-25 -53.5t-44 -35t-65 -12.5q-39 0 -65.5 12.5t-43 35t-24 53.5t-7.5 68v72zM452 700h81l-299 -700h-81zM125 439q0 -22 7 -34.5t24 -12.5t24 12.5t7 34.5v132
q0 23 -7 35.5t-24 12.5t-24 -12.5t-7 -35.5v-132zM388 231q0 37 7.5 68t24 53.5t43 35t64.5 12.5q39 0 66 -12.5t44 -35t25 -53.5t8 -68v-72q0 -37 -8 -68t-25 -53.5t-44 -35t-65 -12.5q-39 0 -65.5 12.5t-43 35t-24 53.5t-7.5 68v72zM498 129q0 -22 7 -34.5t24 -12.5
t24 12.5t7 34.5v132q0 23 -7 35.5t-24 12.5t-24 -12.5t-7 -35.5v-132z" />
    <glyph glyph-name="ampersand" unicode="&#x26;" horiz-adv-x="429" 
d="M156 444q0 -22 10.5 -34.5t30.5 -12.5h41v61h140v-61h35v-95h-35v-303h-97v70h-10q-11 -38 -40.5 -59t-71.5 -21q-29 0 -55 11t-45.5 34t-31 57.5t-11.5 81.5v19q0 32 4.5 59t16.5 47t32.5 32.5t52.5 14.5v9q-32 2 -52.5 14.5t-32.5 33t-16.5 48t-4.5 58.5v19
q0 89 46 136t133 47q88 0 135.5 -47.5t47.5 -135.5v-37h-140v47q0 51 -41 51t-41 -51v-93zM197 302q-20 0 -30.5 -12.5t-10.5 -33.5v-94q0 -23 10 -37t27 -14q20 0 32.5 18.5t12.5 47.5v125h-41z" />
    <glyph glyph-name="quotesingle" unicode="'" horiz-adv-x="140" 
d="M122 650l-9 -216h-85l-9 216v70h103v-70z" />
    <glyph glyph-name="parenleft" unicode="(" horiz-adv-x="226" 
d="M90 -172q-36 129 -53.5 239t-17.5 216t17.5 215.5t53.5 238.5l118 -17q-25 -129 -37 -234t-12 -203q0 -99 12 -204t37 -234z" />
    <glyph glyph-name="parenright" unicode=")" horiz-adv-x="226" 
d="M136.006 736.989q35.9971 -128.992 53.4961 -238.985t17.499 -215.986q0 -105.994 -17.499 -215.487t-53.4961 -238.485l-117.993 16.999q24.998 128.992 36.998 233.985q11.999 104.994 11.999 202.988q0 98.9941 -11.999 203.987q-12 104.993 -36.998 233.985z" />
    <glyph glyph-name="asterisk" unicode="*" horiz-adv-x="397" 
d="M142 540l-122 22l32 99l112 -54l-17 123h104l-16 -123l111 54l33 -99l-122 -22l85 -90l-84 -61l-59 109l-59 -109l-84 61z" />
    <glyph glyph-name="plus" unicode="+" horiz-adv-x="438" 
d="M420 288h-146v-149h-110v149h-145v103h145v149h110v-149h146v-103z" />
    <glyph glyph-name="comma" unicode="," horiz-adv-x="179" 
d="M37 154h124l-78 -255h-85z" />
    <glyph glyph-name="hyphen" unicode="-" horiz-adv-x="277" 
d="M258 278h-240v122h240v-122z" />
    <glyph glyph-name="period" unicode="." horiz-adv-x="179" 
d="M19 70q0 35 18 54.5t53 19.5q34 0 52.5 -20t18.5 -55t-18 -54.5t-53 -19.5t-53 19.5t-18 55.5z" />
    <glyph glyph-name="slash" unicode="/" horiz-adv-x="245" 
d="M12 -80l96 810h125l-96 -810h-125z" />
    <glyph glyph-name="zero" unicode="0" horiz-adv-x="394" 
d="M16 528q0 93 48.5 137.5t130.5 44.5q84 0 133.5 -45.5t49.5 -136.5v-355q0 -92 -49.5 -137.5t-133.5 -45.5q-82 0 -130.5 45t-48.5 138v355zM156 163q0 -29 12.5 -40.5t28.5 -11.5q17 0 29 11.5t12 40.5v374q0 29 -12 40t-29 11q-16 0 -28.5 -11t-12.5 -40v-374z" />
    <glyph glyph-name="one" unicode="1" horiz-adv-x="236" 
d="M71 0v571l-5 8h-48v121h193v-700h-140z" />
    <glyph glyph-name="two" unicode="2" horiz-adv-x="392" 
d="M16 528q0 88 47.5 135.5t134.5 47.5q86 0 132 -47t46 -136v-12q0 -88 -24.5 -150.5t-77.5 -94.5l-25 -14q-28 -17 -46 -29.5t-28.5 -23.5t-14.5 -23.5t-4 -29.5v-17h218v-134h-358v127q0 45 6 76.5t18.5 55t32.5 41t48 34.5l21 11q29 17 47 29.5t28.5 25t14.5 26.5t4 35
v77q0 51 -40 51t-40 -51v-122h-140v112z" />
    <glyph glyph-name="three" unicode="3" horiz-adv-x="394" 
d="M238 537q0 52 -41 52t-41 -52v-77h-140v68q0 87 48 134.5t135 47.5t133 -47t46 -135v-12q0 -39 -8.5 -68t-22 -48.5t-31 -30t-36.5 -13.5v-9q19 -2 36.5 -12.5t31 -31t22 -50t8.5 -69.5v-12q0 -88 -46 -135t-133 -47t-135 47.5t-48 134.5v68h140v-77q0 -51 41 -51t41 51
v45q0 50 -14.5 69.5t-61.5 19.5h-20v107h20q23 0 38 4.5t23.5 15t11.5 27.5t3 41v45z" />
    <glyph glyph-name="four" unicode="4" horiz-adv-x="384" 
d="M367 700v-700h-140v196h-210v504h140v-383h70v383h140z" />
    <glyph glyph-name="five" unicode="5" horiz-adv-x="391" 
d="M18 700h337v-122h-197v-109h3q24 19 50 28.5t49 9.5q53 0 84 -37.5t31 -98.5v-198q0 -90 -45.5 -137t-130.5 -47q-88 0 -135.5 48t-47.5 136v100h140v-111q0 -24 10.5 -37.5t29.5 -13.5q39 0 39 51v198q0 24 -11 35.5t-25 11.5q-12 0 -23.5 -9t-17.5 -26v-64h-140v392z
" />
    <glyph glyph-name="six" unicode="6" horiz-adv-x="394" 
d="M237 453v84q0 29 -12.5 40t-28.5 11t-28 -11t-12 -41v-144h10q14 22 39 31t49 9t46.5 -8.5t40 -25.5t27.5 -44t10 -65v-116q0 -92 -49.5 -137.5t-133.5 -45.5q-83 0 -131 45t-48 138v355q0 93 48 137.5t130 44.5q84 0 133.5 -45.5t49.5 -136.5v-75h-140zM156 163
q0 -29 12.5 -40.5t28.5 -11.5t28.5 11.5t12.5 40.5v89q0 29 -11.5 39.5t-28.5 10.5t-29.5 -10.5t-12.5 -39.5v-89z" />
    <glyph glyph-name="seven" unicode="7" horiz-adv-x="353" 
d="M17 701h319v-122l-133 -578h-144l132 571l-6 7h-168v122z" />
    <glyph glyph-name="eight" unicode="8" horiz-adv-x="396" 
d="M17 535q0 88 41.5 131.5t136.5 43.5q96 0 140 -44.5t44 -130.5v-20q0 -30 -8 -55.5t-21 -44t-30 -29.5t-35 -13v-9q19 -1 36 -11.5t30 -30.5t21 -50.5t8 -72.5v-26q0 -92 -44.5 -137.5t-140.5 -45.5q-95 0 -137 45t-42 138v26q0 80 25 121t62 44v10q-37 4 -61.5 42
t-24.5 99v20zM157 478q0 -26 12.5 -37t28.5 -11t28.5 11t12.5 37v59q0 29 -12 40t-29 11t-29 -11t-12 -40v-59zM156 163q0 -29 12.5 -40.5t29.5 -11.5t29.5 11.5t12.5 40.5v94q0 51 -42 51t-42 -51v-94z" />
    <glyph glyph-name="nine" unicode="9" horiz-adv-x="394" 
d="M157 247v-84q0 -29 12 -40.5t28 -11.5t28 11.5t12 41.5v144h-10q-14 -22 -38.5 -31t-48.5 -9t-46.5 8.5t-40 25.5t-27.5 44.5t-10 64.5v116q0 92 49.5 137.5t133.5 45.5q82 0 130 -45t48 -138v-355q0 -93 -48 -137.5t-130 -44.5q-83 0 -132.5 45.5t-49.5 136.5v75h140z
M237 537q0 29 -12 40t-28 11q-17 0 -29 -11t-12 -40v-89q0 -29 11.5 -39.5t28.5 -10.5q16 0 28.5 10.5t12.5 39.5v89z" />
    <glyph glyph-name="colon" unicode=":" horiz-adv-x="179" 
d="M19 70q0 35 18 54.5t53 19.5q34 0 52.5 -20t18.5 -55t-18 -54.5t-53 -19.5t-53 19.5t-18 55.5zM19 442q0 35 18 54.5t53 19.5q34 0 52.5 -20t18.5 -55t-18 -54.5t-53 -19.5t-53 19.5t-18 55.5z" />
    <glyph glyph-name="semicolon" unicode=";" horiz-adv-x="179" 
d="M19 442q0 35 18 54.5t53 19.5q34 0 52.5 -20t18.5 -55t-18 -54.5t-53 -19.5t-53 19.5t-18 55.5zM37 154h124l-78 -255h-85z" />
    <glyph glyph-name="less" unicode="&#x3c;" horiz-adv-x="321" 
d="M302 106l-283 110v97l283 112v-126l-199 -29v-10l199 -28v-126z" />
    <glyph glyph-name="equal" unicode="=" horiz-adv-x="415" 
d="M397 393h-379v103h379v-103zM397 183h-379v103h379v-103z" />
    <glyph glyph-name="greater" unicode="&#x3e;" horiz-adv-x="321" 
d="M18.0186 424.007l282.982 -109.993v-96.9941l-282.982 -111.993v125.992l198.987 28.998v9.99902l-198.987 27.998v125.993z" />
    <glyph glyph-name="question" unicode="?" horiz-adv-x="397" 
d="M19 528q0 87 47.5 134.5t134.5 47.5q85 0 131 -46.5t46 -135.5v-12q0 -41 -6.5 -70.5t-17 -51t-23 -38t-25.5 -30.5l-1 -1q-10 -12 -19.5 -23t-16.5 -24.5t-11.5 -30t-4.5 -39.5v-48h-133v40q0 38 6 65t15.5 46.5t21 33t23.5 25.5l1 1q10 10 19.5 20.5t16.5 24t11 31.5
t4 43v48q0 24 -10.5 37.5t-28.5 13.5q-19 0 -29.5 -13.5t-10.5 -37.5v-115h-140v105zM115 70q0 35 18 54.5t53 19.5q34 0 52.5 -20t18.5 -55t-18 -54.5t-53 -19.5t-53 19.5t-18 55.5z" />
    <glyph glyph-name="at" unicode="@" horiz-adv-x="649" 
d="M470 98q0 -13 7 -20.5t17 -7.5q9 0 16 7.5t7 20.5v314q0 72 -49 104t-143 32t-143.5 -32t-49.5 -104v-282q0 -56 11.5 -92.5t37.5 -58.5t67 -30.5t99 -8.5v-110q-168 0 -250 70.5t-82 224.5v307q0 51 23.5 92.5t65.5 71t98.5 45.5t122.5 16t122.5 -16t98 -45.5t65 -71
t23.5 -92.5v-313q0 -59 -39 -94t-100 -35q-27 0 -50.5 7t-40.5 19.5t-27 30.5t-10 39v7h-9q-9 -48 -32.5 -75.5t-57.5 -27.5q-42 0 -65 42t-23 117v231q0 25 7 46.5t19 37t28.5 24.5t35.5 9q32 0 54.5 -22t33.5 -60h9v75h103v-392zM367 363q-11 29 -36 29q-15 0 -24 -11.5
t-9 -30.5v-191q0 -19 9 -31t23 -12q11 0 21.5 8t15.5 23v216z" />
    <glyph glyph-name="A" unicode="A" horiz-adv-x="382" 
d="M302 701l75 -700h-140l-16 173h-61l-15 -173h-140l78 700h219zM210 296l-14 167h-10l-15 -167h39z" />
    <glyph glyph-name="B" unicode="B" horiz-adv-x="393" 
d="M188 700q88 0 135 -44.5t47 -128.5v-5q0 -38 -9 -66.5t-23 -48.5t-32.5 -31t-37.5 -13v-10q20 -2 40 -14t37 -34t27.5 -52t10.5 -68v-11q0 -83 -51 -128.5t-142 -45.5h-173v700h171zM157 419h29q24 0 34 11.5t10 38.5v58q0 27 -10 39t-34 12h-29v-159zM157 122h32
q25 0 35.5 12t10.5 40v70q0 53 -47 53h-31v-175z" />
    <glyph glyph-name="C" unicode="C" horiz-adv-x="394" 
d="M156 163q0 -29 12.5 -40t28.5 -11t28.5 11t12.5 40v160h140v-149q0 -92 -49.5 -138t-133.5 -46q-82 0 -130.5 45t-48.5 139v354q0 93 48.5 138t130.5 45q84 0 133.5 -46t49.5 -137v-150h-140v160q0 29 -12.5 40t-28.5 11t-28.5 -11t-12.5 -40v-375z" />
    <glyph glyph-name="D" unicode="D" horiz-adv-x="391" 
d="M193 700q82 0 132 -42t50 -132v-352q0 -90 -50 -132t-132 -42h-176v700h176zM158 122h34q19 0 31 10.5t12 39.5v356q0 29 -12 39.5t-31 10.5h-34v-456z" />
    <glyph glyph-name="E" unicode="E" horiz-adv-x="285" 
d="M157 579v-151h113v-122h-113v-184h118v-122h-258v701h255v-122h-115z" />
    <glyph glyph-name="F" unicode="F" horiz-adv-x="280" 
d="M157 579v-168h109v-121h-109v-289h-140v700h255v-122h-115z" />
    <glyph glyph-name="G" unicode="G" horiz-adv-x="394" 
d="M156 163q0 -26 11 -38.5t26 -12.5q17 0 31 16t14 50v113h-45v91h185v-381h-97v69h-9q-12 -39 -44 -59.5t-70 -20.5q-25 0 -50.5 10.5t-46 33t-33 57.5t-12.5 83v354q0 94 48.5 138.5t130.5 44.5q83 0 133 -46t50 -137v-112h-140v122q0 29 -12.5 40t-28.5 11t-28.5 -11
t-12.5 -40v-375z" />
    <glyph glyph-name="H" unicode="H" horiz-adv-x="387" 
d="M371 700v-700h-141v298h-72v-298h-140v700h140v-280h72v280h141z" />
    <glyph glyph-name="I" unicode="I" horiz-adv-x="174" 
d="M157 700v-700h-140v700h140z" />
    <glyph glyph-name="J" unicode="J" horiz-adv-x="379" 
d="M362 700v-527q0 -92 -48 -137.5t-132 -45.5q-83 0 -129 45t-46 138v145h140v-155q0 -29 11.5 -40.5t26.5 -11.5t26 11.5t11 40.5v537h140z" />
    <glyph glyph-name="K" unicode="K" horiz-adv-x="388" 
d="M157 410h14l55 290h149l-89 -350l97 -350h-148l-64 289h-14v-289h-140v700h140v-290z" />
    <glyph glyph-name="L" unicode="L" horiz-adv-x="277" 
d="M158 701v-579h115v-122h-255v701h140z" />
    <glyph glyph-name="M" unicode="M" horiz-adv-x="489" 
d="M199 700l41 -460h10l40 460h181v-700h-128l15 457h-9l-58 -457h-93l-58 457h-9l15 -457h-129v700h182z" />
    <glyph glyph-name="N" unicode="N" horiz-adv-x="403" 
d="M386 700v-700h-155l-97 457h-8l31 -457h-140v700h154l100 -460h8l-33 460h140z" />
    <glyph glyph-name="O" unicode="O" horiz-adv-x="394" 
d="M16 528q0 93 48.5 137.5t130.5 44.5q84 0 133.5 -45.5t49.5 -136.5v-355q0 -92 -49.5 -137.5t-133.5 -45.5q-82 0 -130.5 45t-48.5 138v355zM156 163q0 -29 12.5 -40.5t28.5 -11.5q17 0 29 11.5t12 40.5v374q0 29 -12 40t-29 11q-16 0 -28.5 -11t-12.5 -40v-374z" />
    <glyph glyph-name="P" unicode="P" horiz-adv-x="389" 
d="M190 700q89 0 136 -59t47 -184v-2q0 -64 -11.5 -108t-34 -71t-57 -39t-81.5 -12h-32v-225h-140v700h173zM157 346h32q24 0 34 13.5t10 44.5v113q0 33 -10 47t-34 14h-32v-232z" />
    <glyph glyph-name="Q" unicode="Q" horiz-adv-x="394" 
d="M16 527q0 93 48 138t131 45t133 -46t50 -137v-354q0 -78 -36 -122.5t-98 -56.5v-18q0 -11 3 -15t14 -4h78v-102h-70q-31 0 -53.5 5t-37.5 17t-22.5 32.5t-7.5 51.5v32q-62 12 -97 56.5t-35 123.5v354zM156 162q0 -29 12.5 -40t28.5 -11t28.5 11t12.5 40v375
q0 29 -12.5 40t-28.5 11t-28.5 -11t-12.5 -40v-375z" />
    <glyph glyph-name="R" unicode="R" horiz-adv-x="391" 
d="M190 700q88 0 135.5 -46.5t47.5 -140.5v-5q0 -42 -9 -74t-24 -53.5t-33.5 -33.5t-36.5 -14v-10q18 -2 36.5 -14.5t33.5 -34.5t24 -53t9 -69v-10q0 -45 1.5 -79t8.5 -63h-140q-7 32 -8.5 67t-1.5 76v72q0 52 -44 52h-32v-268h-140v701h173zM157 389h32q44 0 44 54v82
q0 53 -44 53h-32v-189z" />
    <glyph glyph-name="S" unicode="S" horiz-adv-x="394" 
d="M237 452v85q0 51 -40 51q-39 0 -39 -51v-47q0 -16 3 -27.5t12 -21.5t26.5 -20.5t46.5 -24.5l34 -15q28 -13 47 -29t30.5 -38.5t16.5 -52.5t5 -71v-16q0 -88 -48 -136t-136 -48q-87 0 -133 47t-46 137v74h140v-85q0 -51 41 -51t41 50v51q0 16 -3 27t-11.5 21t-25 20
t-43.5 23l-38 17q-28 13 -47 29.5t-30.5 39.5t-16.5 53.5t-5 71.5v12q0 89 46 136t131 47q87 0 134.5 -47.5t47.5 -135.5v-75h-140z" />
    <glyph glyph-name="T" unicode="T" horiz-adv-x="356" 
d="M351 579h-103v-578h-140v578h-102v122h345v-122z" />
    <glyph glyph-name="U" unicode="U" horiz-adv-x="389" 
d="M156 700v-537q0 -29 12 -40.5t27 -11.5t26.5 11.5t11.5 40.5v537h140v-527q0 -92 -48.5 -137.5t-131.5 -45.5q-82 0 -129.5 45t-47.5 138v527h140z" />
    <glyph glyph-name="V" unicode="V" horiz-adv-x="382" 
d="M145 700l42 -546h9l41 546h140l-78 -700h-219l-75 700h140z" />
    <glyph glyph-name="W" unicode="W" horiz-adv-x="516" 
d="M145 700l21 -460h10l36 460h92l36 -460h10l21 460h140l-66 -700h-157l-27 343h-9l-27 -343h-157l-63 700h140z" />
    <glyph glyph-name="X" unicode="X" horiz-adv-x="389" 
d="M190 420h10l36 280h146l-64 -346l66 -354h-146l-39 292h-9l-39 -292h-146l67 354l-65 346h147z" />
    <glyph glyph-name="Y" unicode="Y" horiz-adv-x="366" 
d="M145 700l33 -312h9l33 312h141l-110 -506v-194h-140v194l-106 506h140z" />
    <glyph glyph-name="Z" unicode="Z" horiz-adv-x="345" 
d="M325 701v-123l-173 -449l6 -7h178v-122h-328v122l174 450l-6 7h-158v122h307z" />
    <glyph glyph-name="bracketleft" unicode="[" horiz-adv-x="247" 
d="M18 -155v876h210v-122h-70v-632h70v-122h-210z" />
    <glyph glyph-name="backslash" unicode="\" horiz-adv-x="250" 
d="M17 730h125l96 -810h-125z" />
    <glyph glyph-name="bracketright" unicode="]" horiz-adv-x="247" 
d="M229.001 719.99v-875.946h-209.987v121.992h69.9961v631.962h-69.9961v121.992h209.987z" />
    <glyph glyph-name="asciicircum" unicode="^" horiz-adv-x="289" 
d="M168 470l-18 187h-10l-18 -187h-103l66 230h121l65 -230h-103z" />
    <glyph glyph-name="underscore" unicode="_" horiz-adv-x="327" 
d="M308 -107h-290v107h290v-107z" />
    <glyph glyph-name="grave" unicode="`" horiz-adv-x="176" 
d="M71 563l-52 137h102l37 -137h-87z" />
    <glyph glyph-name="a" unicode="a" 
d="M217 359q0 22 -9 34.5t-24 12.5t-24.5 -12.5t-9.5 -34.5v-61h-133v53q0 78 44 123.5t121 45.5q76 0 121.5 -45.5t45.5 -123.5v-351h-132v50h-4q-39 -60 -98 -60q-45 0 -72.5 30.5t-27.5 80.5v65q0 50 34 80t91 30h77v83zM217 211h-23q-46 0 -46 -37v-44q0 -17 8.5 -26.5
t22.5 -9.5q27 0 38 30v87z" />
    <glyph glyph-name="b" unicode="b" horiz-adv-x="365" 
d="M16 720h133v-265h9q30 65 94 65q45 0 72 -33.5t27 -97.5v-256q0 -65 -28 -104t-74 -39q-29 0 -53 16.5t-38 48.5h-9v-55h-133v720zM149 137q5 -14 15.5 -22.5t21.5 -8.5q14 0 23 12t9 31v213q0 18 -9 30t-23 12q-11 0 -21.5 -9t-15.5 -23v-235z" />
    <glyph glyph-name="c" unicode="c" 
d="M148 151q0 -22 9.5 -34.5t25.5 -12.5t25.5 12.5t9.5 34.5v82h132v-74q0 -78 -45.5 -123.5t-123.5 -45.5t-122 45.5t-44 123.5v192q0 78 44 123.5t122 45.5t123.5 -45.5t45.5 -123.5v-74h-132v81q0 23 -9.5 35.5t-25.5 12.5t-25.5 -12.5t-9.5 -35.5v-207z" />
    <glyph glyph-name="d" unicode="d" 
d="M216 0v55h-9q-15 -32 -38.5 -48.5t-49.5 -16.5q-21 0 -39.5 10t-33 30t-23 49t-8.5 66v247q0 65 30 96.5t70 31.5q30 0 55 -16.5t37 -46.5h9v263h133v-720h-133zM216 375q-5 13 -14.5 21t-20.5 8q-15 0 -24 -11.5t-9 -30.5v-212q0 -18 9 -30t23 -12q12 0 21.5 8t14.5 22
v237z" />
    <glyph glyph-name="e" unicode="e" 
d="M148 152q0 -23 9 -35.5t25 -12.5t25.5 12.5t9.5 35.5v41h133v-34q0 -78 -46 -123.5t-123 -45.5q-78 0 -122 45.5t-44 123.5v192q0 78 44 123.5t122 45.5q77 0 123 -45.5t46 -123.5v-128h-202v-71zM148 295h69v63q0 23 -9.5 35.5t-25.5 12.5t-25 -12.5t-9 -35.5v-63z" />
    <glyph glyph-name="f" unicode="f" horiz-adv-x="258" 
d="M45 554q0 46 10 77.5t29 50.5t45 27t58 8q38 0 80 -9l-1 -113q-9 2 -17.5 3.5t-17.5 1.5q-21 0 -37 -12t-16 -41v-37h88v-114h-88v-396h-133v396h-45v114h45v44z" />
    <glyph glyph-name="g" unicode="g" 
d="M349 -56q0 -73 -43.5 -113.5t-121.5 -40.5t-122.5 40.5t-44.5 112.5v25h133v-17q0 -22 9 -34.5t25 -12.5q15 0 24 13t9 36v105h-10q-14 -33 -38 -50.5t-53 -17.5q-46 0 -73.5 39t-27.5 105v248q0 63 27 100.5t72 37.5q29 0 53.5 -17t39.5 -51h10v58h132v-566zM217 368
q-6 16 -16.5 25.5t-21.5 9.5q-14 0 -22.5 -12t-8.5 -30v-209q0 -20 8.5 -33t22.5 -13q11 0 21.5 10t16.5 26v226z" />
    <glyph glyph-name="h" unicode="h" horiz-adv-x="365" 
d="M16 720h133v-268h10q30 68 92 68q42 0 71 -34t29 -104v-382h-133v361q0 19 -8.5 30.5t-22.5 11.5q-11 0 -21.5 -9t-16.5 -23v-371h-133v720z" />
    <glyph glyph-name="i" unicode="i" horiz-adv-x="171" 
d="M11 626q0 34 20 50.5t55 16.5t55 -17t20 -50q0 -35 -19.5 -51.5t-54.5 -16.5t-55.5 16.5t-20.5 51.5zM153 510v-510h-133v510h133z" />
    <glyph glyph-name="j" unicode="j" horiz-adv-x="171" 
d="M11 627q0 35 19.5 51t53.5 16q35 0 55.5 -16.5t20.5 -50.5q0 -35 -20 -51.5t-55 -16.5t-54.5 16.5t-19.5 51.5zM151 -44q0 -85 -35.5 -125.5t-96.5 -40.5q-31 0 -64 10l1 113q12 -3 21 -3q20 0 31 10.5t11 33.5v557h132v-555z" />
    <glyph glyph-name="k" unicode="k" horiz-adv-x="345" 
d="M149 331h9l57 179h131l-84 -242l89 -268h-131l-62 203h-9v-203h-133v720h133v-389z" />
    <glyph glyph-name="l" unicode="l" horiz-adv-x="167" 
d="M17 720h133v-720h-133v720z" />
    <glyph glyph-name="m" unicode="m" horiz-adv-x="559" 
d="M16 510h133v-58l9 1q31 67 89 67q29 0 51.5 -18t35.5 -50h8q16 33 41.5 50.5t54.5 17.5q21 0 40.5 -9t34 -26.5t23.5 -43.5t9 -59v-382h-133v362q0 19 -8 30.5t-21 11.5q-19 0 -36 -26v-4v-374h-133v362q0 19 -8 30.5t-21 11.5q-23 0 -36 -34v-370h-133v510z" />
    <glyph glyph-name="n" unicode="n" horiz-adv-x="365" 
d="M16 510h132v-58l10 1q30 67 92 67q42 0 71.5 -34t29.5 -104v-382h-133v363q0 19 -9 30.5t-23 11.5q-12 0 -22 -9t-16 -24v-372h-132v510z" />
    <glyph glyph-name="o" unicode="o" 
d="M15 351q0 37 11 68t32 53.5t52 35t71 12.5q41 0 72 -12.5t53 -35t33 -53.5t11 -68v-192q0 -37 -11 -68t-33 -53.5t-53 -35t-72 -12.5q-40 0 -71 12.5t-52 35t-32 53.5t-11 68v192zM148 151q0 -22 9.5 -34.5t25.5 -12.5t25.5 12.5t9.5 34.5v207q0 23 -9.5 35.5t-25.5 12.5
t-25.5 -12.5t-9.5 -35.5v-207z" />
    <glyph glyph-name="p" unicode="p" horiz-adv-x="365" 
d="M149 510v-65h9q24 43 46.5 59t45.5 16q45 0 72.5 -40t27.5 -106v-241q0 -65 -26.5 -104t-68.5 -39q-27 0 -53.5 18.5t-43.5 56.5h-9v-268h-133v713h133zM149 147q5 -15 16 -24.5t22 -9.5q14 0 22.5 12t8.5 31v198q0 18 -8.5 30t-22.5 12q-11 0 -22 -9.5t-16 -24.5v-215z
" />
    <glyph glyph-name="q" unicode="q" 
d="M349 -203h-133v268h-9q-17 -38 -43.5 -56.5t-53.5 -18.5q-42 0 -68.5 39t-26.5 104v241q0 66 27.5 106t72.5 40q23 0 45.5 -15.5t46.5 -59.5h9v65h133v-713zM216 362q-6 15 -16.5 24.5t-21.5 9.5q-13 0 -21.5 -12t-8.5 -30v-198q0 -19 8.5 -31t21.5 -12q11 0 21.5 9.5
t16.5 24.5v215z" />
    <glyph glyph-name="r" unicode="r" horiz-adv-x="275" 
d="M149 432h4q13 39 38 63.5t64 24.5q10 0 15 -1v-132q-6 1 -12.5 1.5t-12.5 0.5q-51 0 -73.5 -30t-22.5 -84v-275h-132v510h132v-78z" />
    <glyph glyph-name="s" unicode="s" 
d="M216 330v28q0 47 -34 47q-15 0 -23.5 -11t-8.5 -31v-2q0 -21 9 -32t35 -20l64 -28q47 -20 69 -48.5t22 -79.5v-14q0 -30 -11.5 -57t-33 -47.5t-53 -32.5t-71.5 -12t-70.5 12.5t-51.5 34t-31.5 51.5t-10.5 65v27h133v-27q0 -22 9 -34.5t24 -12.5q16 0 25.5 11.5t9.5 30.5
v3q0 23 -9.5 33t-38.5 21l-66 27q-46 17 -66 46t-20 80v12q0 30 11 57.5t32 48t51.5 32.5t70.5 12t71 -12.5t52.5 -34t32.5 -51t11 -64.5v-28h-133z" />
    <glyph glyph-name="t" unicode="t" horiz-adv-x="271" 
d="M3 510h46v110l132 8v-118h85v-114h-85v-235q0 -30 15.5 -41.5t36.5 -11.5q15 0 33 5l2 -114q-43 -9 -80 -9q-31 0 -56.5 8t-44 27.5t-28.5 51t-10 77.5l-1 242h-45v114z" />
    <glyph glyph-name="u" unicode="u" 
d="M349 0h-133v58h-9q-32 -68 -92 -68q-42 0 -71 34t-29 104v382h133v-366q0 -19 8 -30.5t22 -11.5q12 0 22 9t16 24v375h133v-510z" />
    <glyph glyph-name="v" unicode="v" horiz-adv-x="347" 
d="M138 510l31 -355h9l31 355h133l-74 -510h-189l-74 510h133z" />
    <glyph glyph-name="w" unicode="w" horiz-adv-x="501" 
d="M138 510l21 -325h10l36 325h92l36 -325h9l21 325h133l-72 -510h-142l-26 238h-10l-27 -238h-142l-72 510h133z" />
    <glyph glyph-name="x" unicode="x" horiz-adv-x="356" 
d="M173 307h10l31 203h138l-55 -253l56 -257h-137l-34 212h-10l-33 -212h-137l57 259l-55 251h138z" />
    <glyph glyph-name="y" unicode="y" horiz-adv-x="365" 
d="M351 -56q0 -73 -43.5 -113.5t-122.5 -40.5q-78 0 -122.5 40.5t-44.5 112.5v25h133v-17q0 -22 9 -34.5t24 -12.5q34 0 34 49v105h-9q-33 -68 -94 -68q-41 0 -70 34t-29 104v382h133v-366q0 -19 8 -30.5t22 -11.5q12 0 22.5 9t16.5 24v375h133v-566z" />
    <glyph glyph-name="z" unicode="z" horiz-adv-x="316" 
d="M12 0v113l137 274l-4 9h-127v114h277v-113l-137 -275l5 -8h141v-114h-292z" />
    <glyph glyph-name="braceleft" unicode="{" horiz-adv-x="335" 
d="M228 404q0 -27 -4 -48.5t-13.5 -36.5t-25.5 -23t-41 -8v-10q25 0 41 -8t25.5 -23t13.5 -36.5t4 -48.5v-120q0 -28 3 -45.5t10.5 -27.5t20 -14t32.5 -4h22v-122h-70q-78 0 -118 42.5t-40 127.5v161q0 18 -2 30.5t-9.5 21t-21.5 12.5t-37 4v110q23 0 37 4t21.5 12.5t9.5 21
t2 30.5v161q0 85 40 127.5t118 42.5h70v-122h-22q-20 0 -32.5 -4t-20 -14t-10.5 -27.5t-3 -45.5v-120z" />
    <glyph glyph-name="bar" unicode="|" horiz-adv-x="177" 
d="M18 -155v875h140v-875h-140z" />
    <glyph glyph-name="braceright" unicode="}" horiz-adv-x="335" 
d="M106.014 161.024q0 26.999 4 48.4971q4 21.499 13.499 36.498q9.5 14.999 25.499 22.998q15.999 8 40.9971 8v9.99902q-24.998 0 -40.9971 8q-15.999 7.99902 -25.499 22.998q-9.49902 14.999 -13.499 36.498t-4 48.4971v119.993q0 27.998 -3 45.4971
q-2.99902 17.499 -10.499 27.498q-7.49902 9.99902 -19.999 13.999q-12.499 4 -32.498 4h-21.998v121.992h69.9951q77.9951 0 117.993 -42.4971t39.998 -127.492v-160.99q0 -17.999 1.99902 -30.498q2 -12.499 9.5 -20.999q7.49902 -8.49902 21.498 -12.499q14 -4 36.998 -4
v-109.993q-22.998 0 -36.998 -4q-13.999 -3.99902 -21.498 -12.499q-7.5 -8.49902 -9.5 -20.999q-1.99902 -12.499 -1.99902 -30.498v-160.99q0 -84.9941 -39.998 -127.492q-39.998 -42.4971 -117.993 -42.4971h-69.9951v121.992h21.998q19.999 0 32.498 4
q12.5 4 19.999 13.999q7.5 10 10.499 27.499q3 17.498 3 45.4971v119.992z" />
    <glyph glyph-name="asciitilde" unicode="~" horiz-adv-x="358" 
d="M339 397q0 -69 -19.5 -98.5t-60.5 -29.5q-21 0 -42.5 7.5t-43.5 20.5l-6 3q-18 11 -33 16.5t-29 5.5q-32 0 -32 -40v-10h-54v11q0 127 83 127q20 0 41 -7t43 -20l6 -2q38 -22 63 -22q32 0 32 38v10h52v-10z" />
    <glyph glyph-name="exclamdown" unicode="&#xa1;" horiz-adv-x="196" 
d="M27 450q0 36 17.5 55.5t52.5 19.5t53 -20t18 -56q0 -73 -71 -73q-70 0 -70 74zM27 -100l16 454h108l16 -454v-100h-140v100z" />
    <glyph glyph-name="cent" unicode="&#xa2;" 
d="M148 151q0 -22 9.5 -34.5t25.5 -12.5t25.5 12.5t9.5 34.5v82h132v-74q0 -62 -29 -103.5t-80 -57.5l7 -98h-125l6 96q-54 14 -84 56.5t-30 106.5v192q0 64 30 106.5t84 56.5l-6 95h125l-7 -97q51 -16 80 -57.5t29 -103.5v-74h-132v81q0 23 -9.5 35.5t-25.5 12.5
t-25.5 -12.5t-9.5 -35.5v-207z" />
    <glyph glyph-name="sterling" unicode="&#xa3;" horiz-adv-x="411" 
d="M186 314h172v-99h-172q-2 -28 -8.5 -50t-20.5 -43h239v-122h-380v122q20 23 27.5 43t9.5 50h-37v99h37v260q0 66 44 101t125 35q83 0 128.5 -47.5t45.5 -135.5v-150h-133v160q0 51 -38 51q-39 0 -39 -45v-229z" />
    <glyph glyph-name="currency" unicode="&#xa4;" horiz-adv-x="511" 
d="M18 700h474v-700h-474v700zM255 391l157 259h-313zM68 83l162 267l-162 267v-534zM442 83v534l-162 -267zM99 50h313l-157 259z" />
    <glyph glyph-name="yen" unicode="&#xa5;" horiz-adv-x="366" 
d="M145 701l33 -312h9l33 312h141l-80 -369h76v-87h-95l-5 -22h100v-87h-106v-135h-140v135h-102v87h96l-5 22h-91v87h73l-77 369h140z" />
    <glyph glyph-name="brokenbar" unicode="&#xa6;" horiz-adv-x="177" 
d="M18 315v405h140v-405h-140zM18 -155v403h140v-403h-140z" />
    <glyph glyph-name="section" unicode="&#xa7;" horiz-adv-x="372" 
d="M223 503v41q0 51 -37 51t-37 -47v-46q0 -28 10 -39.5t38 -20.5l65 -29q48 -19 71.5 -49t23.5 -84v-62q0 -32 -11.5 -59t-35.5 -47q23 -17 35 -43t12 -67v-59q0 -31 -11.5 -59t-34 -49t-54.5 -33.5t-73 -12.5t-72.5 12.5t-53 35t-32.5 53t-11 67.5v39h133v-39
q0 -26 10.5 -39t27.5 -13q18 0 28 12.5t10 34.5v47q0 29 -10.5 40t-40.5 22l-67 27q-48 18 -68.5 48.5t-20.5 83.5v60q0 30 11.5 57.5t35.5 48.5q-25 17 -36 43.5t-11 68.5v58q0 32 11 60t32.5 49t53 33t71.5 12q41 0 73 -12.5t53.5 -34.5t33 -53t11.5 -67v-40h-133z
M177 174q29 8 38 23.5t9 29.5v51q0 18 -5.5 29t-20.5 19q-29 -5 -39 -19.5t-10 -34.5v-48q0 -20 6 -31t22 -19z" />
    <glyph glyph-name="dieresis" unicode="&#xa8;" horiz-adv-x="295" 
d="M19 631q0 29 12.5 45.5t46.5 16.5t47.5 -17t13.5 -45t-13 -44.5t-47 -16.5q-35 0 -47.5 16.5t-12.5 44.5zM157 631q0 29 12.5 45.5t46.5 16.5t47.5 -17t13.5 -45t-13 -44.5t-47 -16.5q-35 0 -47.5 16.5t-12.5 44.5z" />
    <glyph glyph-name="copyright" unicode="&#xa9;" horiz-adv-x="639" 
d="M19 395q0 159 71.5 237t224.5 78q157 0 231 -81t74 -234v-88q0 -154 -72 -235.5t-233 -81.5q-79 0 -135.5 20t-92 60.5t-52 101t-16.5 140.5v83zM118 298q0 -120 48.5 -172.5t152.5 -52.5q105 0 153.5 53t48.5 172v107q0 117 -48.5 169t-152.5 52t-153 -51.5t-49 -169.5
v-107zM284 273q0 -47 36 -47t36 47v57h125v-49q0 -39 -8.5 -71t-27 -54t-49.5 -34t-76 -12t-76 12t-49.5 34t-27 53.5t-8.5 71.5v138q0 40 7.5 71.5t25.5 53.5t49 34t79 12t79 -12t49.5 -34t25.5 -54t7 -71v-47h-125v55q0 48 -36 48t-36 -48v-154z" />
    <glyph glyph-name="ordfeminine" unicode="&#xaa;" horiz-adv-x="245" 
d="M145 623q0 27 -22 27q-23 0 -23 -27v-36h-80v32q0 47 27 74t75 27t76.5 -27t28.5 -74v-211h-82v30h-7q-24 -36 -63 -36q-28 0 -42 19t-14 48v39q0 29 21 48t53 19h52v48zM145 534h-20q-26 0 -26 -22v-26q0 -20 20 -20q19 0 26 18v50z" />
    <glyph glyph-name="guillemotleft" unicode="&#xab;" horiz-adv-x="600" 
d="M304 78l-286 139v95l286 140l3 -125l-139 -61v-2l138 -61zM579 78l-286 139v95l286 140l3 -125l-139 -61v-2l138 -61z" />
    <glyph glyph-name="logicalnot" unicode="&#xac;" horiz-adv-x="511" 
d="M18 700h474v-700h-474v700zM255 391l157 259h-313zM68 83l162 267l-162 267v-534zM442 83v534l-162 -267zM99 50h313l-157 259z" />
    <glyph glyph-name="registered" unicode="&#xae;" horiz-adv-x="639" 
d="M19 395q0 159 71.5 237t223.5 78q158 0 232 -81t74 -234v-88q0 -77 -17.5 -136.5t-54.5 -99.5t-94.5 -60.5t-138.5 -20.5q-79 0 -135.5 20t-92 60.5t-52 101t-16.5 140.5v83zM118 298q0 -120 48 -172.5t153 -52.5t153.5 53t48.5 171v108q0 117 -48.5 169t-152.5 52
q-103 0 -152.5 -52t-49.5 -169v-107zM322 558q52 0 81 -28t29 -85v-2q0 -51 -19.5 -76t-42.5 -27v-10q23 -2 42.5 -28t19.5 -73v-6q0 -27 1 -47.5t5 -37.5h-85q-4 19 -5 40t-1 46v43q0 30 -26 30h-21v-159h-84v420h106zM300 372h21q26 0 26 32v49q0 17 -6 23.5t-20 6.5h-21
v-111z" />
    <glyph glyph-name="macron" unicode="&#xaf;" horiz-adv-x="249" 
d="M231 581h-213v102h213v-102z" />
    <glyph glyph-name="degree" unicode="&#xb0;" horiz-adv-x="213" 
d="M19 636q0 42 23 68t70 26q48 0 72 -26.5t24 -67.5v-117q0 -42 -24 -68.5t-72 -26.5q-47 0 -70 26.5t-23 68.5v117zM92 515q0 -11 4.5 -18.5t17.5 -7.5q12 0 16.5 7.5t4.5 18.5v125q0 10 -4.5 17.5t-16.5 7.5q-13 0 -17.5 -7.5t-4.5 -17.5v-125z" />
    <glyph glyph-name="plusminus" unicode="&#xb1;" horiz-adv-x="400" 
d="M382 288h-127v-119h-110v119h-127v102h127v120h110v-120h127v-102zM382 13h-364v102h364v-102z" />
    <glyph glyph-name="twosuperior" unicode="&#xb2;" horiz-adv-x="232" 
d="M18 634q0 35 26 60.5t73 25.5q46 0 70.5 -25.5t24.5 -60.5v-14q0 -27 -6.5 -44t-17 -27t-23 -15.5t-24.5 -9.5h-2q-14 -6 -25.5 -14t-11.5 -24v-5h109v-69h-190v55q0 35 14 53t41 32l5 2q17 8 27.5 14.5t16.5 12.5t8.5 13.5t2.5 17.5v13q0 26 -20 26q-21 0 -21 -26v-33
h-77v42z" />
    <glyph glyph-name="threesuperior" unicode="&#xb3;" horiz-adv-x="225" 
d="M133 633q0 20 -20 20q-21 0 -21 -20v-20h-77v29q0 78 99 78q97 0 97 -79v-5q0 -33 -16 -48.5t-37 -17.5v-6q21 -2 37 -19.5t16 -50.5v-5q0 -77 -97 -77q-99 0 -99 78v29h77v-20q0 -19 21 -19q20 0 20 19v6q0 21 -7 29t-32 8h-11v48h11q25 0 32 8.5t7 28.5v6z" />
    <glyph glyph-name="acute" unicode="&#xb4;" horiz-adv-x="176" 
d="M18 563l37 137h102l-52 -137h-87z" />
    <glyph glyph-name="paragraph" unicode="&#xb6;" horiz-adv-x="538" 
d="M379 -155v875h140v-875h-140zM198 -155v358q-47 0 -81 7.5t-56 33.5t-32.5 78t-10.5 140t10.5 139.5t32.5 77.5t56 33.5t81 7.5h140v-875h-140z" />
    <glyph glyph-name="periodcentered" unicode="&#xb7;" horiz-adv-x="180" 
d="M19 374q0 35 18 54.5t53 19.5q34 0 52.5 -20t18.5 -55t-18 -54.5t-53 -19.5t-53 19.5t-18 55.5z" />
    <glyph glyph-name="cedilla" unicode="&#xb8;" horiz-adv-x="226" 
d="M55 -2h55l-6 -46q50 0 76.5 -20t26.5 -48q0 -29 -30 -52.5t-87 -23.5q-15 0 -33 2t-38 6v52q20 -5 35 -5q24 0 40.5 8.5t16.5 20.5t-19 19t-51 7z" />
    <glyph glyph-name="onesuperior" unicode="&#xb9;" horiz-adv-x="142" 
d="M46 412v224l-3 6h-24v68h105v-298h-78z" />
    <glyph glyph-name="ordmasculine" unicode="&#xba;" horiz-adv-x="242" 
d="M18 618q0 45 26 73.5t76 28.5q51 0 77.5 -28.5t26.5 -73.5v-115q0 -44 -26.5 -72.5t-77.5 -28.5q-50 0 -76 28t-26 73v115zM98 500q0 -28 23 -28t23 28v122q0 28 -23 28t-23 -28v-122z" />
    <glyph glyph-name="guillemotright" unicode="&#xbb;" horiz-adv-x="600" 
d="M296.019 452.005l285.982 -138.991v-94.9941l-285.982 -139.992l-3 124.992l138.991 60.9971v1.99902l-137.991 60.9971zM21.0352 452.005l285.982 -138.991v-94.9941l-285.982 -139.992l-3 124.992l138.992 60.9971v1.99902l-137.992 60.9971z" />
    <glyph glyph-name="onequarter" unicode="&#xbc;" horiz-adv-x="455" 
d="M171 0h-77l113 720h78zM46 412v224l-3 6h-24v68h105v-298h-78zM437 298v-298h-78v82h-107v216h78v-147h29v147h78z" />
    <glyph glyph-name="onehalf" unicode="&#xbd;" horiz-adv-x="453" 
d="M171 0h-77l113 720h78zM46 412v224l-3 6h-24v68h105v-298h-78zM239 222q0 35 26 60.5t73 25.5q46 0 70.5 -25.5t24.5 -60.5v-14q0 -27 -6.5 -44t-17 -27t-23 -15.5t-24.5 -9.5h-2q-14 -6 -25.5 -14t-11.5 -24v-5h109v-69h-190v55q0 35 14 53t41 32l5 2q17 8 27.5 14.5
t16.5 12.5t8.5 13.5t2.5 17.5v13q0 26 -20 26q-21 0 -21 -26v-33h-77v42z" />
    <glyph glyph-name="threequarters" unicode="&#xbe;" horiz-adv-x="523" 
d="M241 0h-77l113 720h78zM137 633q0 20 -20 20q-21 0 -21 -20v-20h-77v29q0 78 99 78q97 0 97 -79v-5q0 -33 -16 -48.5t-37 -17.5v-6q21 -2 37 -19.5t16 -50.5v-5q0 -77 -97 -77q-99 0 -99 78v29h77v-20q0 -19 21 -19q20 0 20 19v6q0 21 -7 29t-32 8h-11v48h11q25 0 32 8.5
t7 28.5v6zM504 298v-298h-78v82h-107v216h78v-147h29v147h78z" />
    <glyph glyph-name="questiondown" unicode="&#xbf;" horiz-adv-x="397" 
d="M135 450q0 36 18 55.5t53 19.5q34 0 52.5 -20t18.5 -56q0 -35 -18 -54t-53 -19t-53 19.5t-18 54.5zM378 -27q0 -88 -47.5 -135.5t-134.5 -47.5q-86 0 -132 47t-46 136v11q0 41 6.5 70.5t17 51t23 38t25.5 30.5l1 2q11 11 20.5 22.5t16.5 25t11.5 30t4.5 38.5v57h133v-49
q0 -38 -6 -65t-15.5 -46t-21.5 -33t-24 -26l-1 -1q-10 -10 -19.5 -20t-16.5 -23.5t-11 -31.5t-4 -44v-47q0 -51 40 -51t40 51v115h140v-105z" />
    <glyph glyph-name="Agrave" unicode="&#xc0;" horiz-adv-x="382" 
d="M302 701l75 -700h-140l-16 173h-61l-15 -173h-140l78 700h219zM210 296l-14 167h-10l-15 -167h39zM151 740l-52 137h102l37 -137h-87z" />
    <glyph glyph-name="Aacute" unicode="&#xc1;" horiz-adv-x="382" 
d="M302 701l75 -700h-140l-16 173h-61l-15 -173h-140l78 700h219zM210 296l-14 167h-10l-15 -167h39zM144 740l37 137h102l-52 -137h-87z" />
    <glyph glyph-name="Acircumflex" unicode="&#xc2;" horiz-adv-x="382" 
d="M302 701l75 -700h-140l-16 173h-61l-15 -173h-140l78 700h219zM210 296l-14 167h-10l-15 -167h39zM97 740l46 137h97l46 -137h-73l-19 64h-5l-19 -64h-73z" />
    <glyph glyph-name="Atilde" unicode="&#xc3;" horiz-adv-x="382" 
d="M302 701l75 -700h-140l-16 173h-61l-15 -173h-140l78 700h219zM210 296l-14 167h-10l-15 -167h39zM287 859q0 -119 -50 -119q-14 0 -27 7.5t-25 21.5l-3 4q-19 21 -34 21q-19 0 -19 -37v-14h-34v14q0 58 12.5 89t38.5 31q24 0 49 -27l4 -3q20 -22 35 -22q20 0 20 34v15
h33v-15z" />
    <glyph glyph-name="Adieresis" unicode="&#xc4;" horiz-adv-x="382" 
d="M302 701l75 -700h-140l-16 173h-61l-15 -173h-140l78 700h219zM210 296l-14 167h-10l-15 -167h39zM62 808q0 29 12.5 45.5t46.5 16.5t47.5 -17t13.5 -45t-13 -44.5t-47 -16.5q-35 0 -47.5 16.5t-12.5 44.5zM200 808q0 29 12.5 45.5t46.5 16.5t47.5 -17t13.5 -45
t-13 -44.5t-47 -16.5q-35 0 -47.5 16.5t-12.5 44.5z" />
    <glyph glyph-name="Aring" unicode="&#xc5;" horiz-adv-x="382" 
d="M302 701l75 -700h-140l-16 173h-61l-15 -173h-140l78 700h219zM210 296l-14 167h-10l-15 -167h39zM108 809q0 36 22 53t60 17t60.5 -17.5t22.5 -52.5q0 -36 -22 -53.5t-60 -17.5q-39 0 -61 17t-22 54zM153 809q0 -31 38 -31q37 0 37 31q0 15 -10.5 22.5t-27.5 7.5
q-37 0 -37 -30z" />
    <glyph glyph-name="AE" unicode="&#xc6;" horiz-adv-x="504" 
d="M376 579v-151h113v-122h-113v-184h118v-122h-258v174h-61l-30 -174h-141l118 701h369v-122h-115zM236 296v166h-11l-29 -166h40z" />
    <glyph glyph-name="Ccedilla" unicode="&#xc7;" horiz-adv-x="394" 
d="M156 163q0 -29 12.5 -40t28.5 -11t28.5 11t12.5 40v160h140v-149q0 -92 -49.5 -138t-133.5 -46q-82 0 -130.5 45t-48.5 139v354q0 93 48.5 138t130.5 45q84 0 133.5 -46t49.5 -137v-150h-140v160q0 29 -12.5 40t-28.5 11t-28.5 -11t-12.5 -40v-375zM171 -2h55l-6 -46
q50 0 76.5 -20t26.5 -48q0 -29 -30 -52.5t-87 -23.5q-15 0 -33 2t-38 6v52q20 -5 35 -5q24 0 40.5 8.5t16.5 20.5t-19 19t-51 7z" />
    <glyph glyph-name="Egrave" unicode="&#xc8;" horiz-adv-x="285" 
d="M157 579v-151h113v-122h-113v-184h118v-122h-258v701h255v-122h-115zM106 740l-52 137h102l37 -137h-87z" />
    <glyph glyph-name="Eacute" unicode="&#xc9;" horiz-adv-x="285" 
d="M157 579v-151h113v-122h-113v-184h118v-122h-258v701h255v-122h-115zM99 740l37 137h102l-52 -137h-87z" />
    <glyph glyph-name="Ecircumflex" unicode="&#xca;" horiz-adv-x="285" 
d="M157 579v-151h113v-122h-113v-184h118v-122h-258v701h255v-122h-115zM52 740l46 137h97l46 -137h-73l-19 64h-5l-19 -64h-73z" />
    <glyph glyph-name="Edieresis" unicode="&#xcb;" horiz-adv-x="285" 
d="M157 579v-151h113v-122h-113v-184h118v-122h-258v701h255v-122h-115zM17 808q0 29 12.5 45.5t46.5 16.5t47.5 -17t13.5 -45t-13 -44.5t-47 -16.5q-35 0 -47.5 16.5t-12.5 44.5zM155 808q0 29 12.5 45.5t46.5 16.5t47.5 -17t13.5 -45t-13 -44.5t-47 -16.5
q-35 0 -47.5 16.5t-12.5 44.5z" />
    <glyph glyph-name="Igrave" unicode="&#xcc;" horiz-adv-x="174" 
d="M157 700v-700h-140v700h140zM47 740l-52 137h102l37 -137h-87z" />
    <glyph glyph-name="Iacute" unicode="&#xcd;" horiz-adv-x="174" 
d="M157 700v-700h-140v700h140zM40 740l37 137h102l-52 -137h-87z" />
    <glyph glyph-name="Icircumflex" unicode="&#xce;" horiz-adv-x="174" 
d="M157 700v-700h-140v700h140zM-7 740l46 137h97l46 -137h-73l-19 64h-5l-19 -64h-73z" />
    <glyph glyph-name="Idieresis" unicode="&#xcf;" horiz-adv-x="174" 
d="M157 700v-700h-140v700h140zM-42 808q0 29 12.5 45.5t46.5 16.5t47.5 -17t13.5 -45t-13 -44.5t-47 -16.5q-35 0 -47.5 16.5t-12.5 44.5zM96 808q0 29 12.5 45.5t46.5 16.5t47.5 -17t13.5 -45t-13 -44.5t-47 -16.5q-35 0 -47.5 16.5t-12.5 44.5z" />
    <glyph glyph-name="Eth" unicode="&#xd0;" horiz-adv-x="410" 
d="M212 701q83 0 132.5 -42.5t49.5 -131.5v-353q0 -90 -49.5 -132t-132.5 -42h-176v303h-28v92l28 -1v307h176zM177 395h34v-92h-34v-181h34q20 0 32 10.5t12 39.5v357q0 29 -12 39.5t-32 10.5h-34v-184z" />
    <glyph glyph-name="Ntilde" unicode="&#xd1;" horiz-adv-x="403" 
d="M386 700v-700h-155l-97 457h-8l31 -457h-140v700h154l100 -460h8l-33 460h140zM297 859q0 -119 -50 -119q-14 0 -27 7.5t-25 21.5l-3 4q-19 21 -34 21q-19 0 -19 -37v-14h-34v14q0 58 12.5 89t38.5 31q24 0 49 -27l4 -3q20 -22 35 -22q20 0 20 34v15h33v-15z" />
    <glyph glyph-name="Ograve" unicode="&#xd2;" horiz-adv-x="394" 
d="M16 528q0 93 48.5 137.5t130.5 44.5q84 0 133.5 -45.5t49.5 -136.5v-355q0 -92 -49.5 -137.5t-133.5 -45.5q-82 0 -130.5 45t-48.5 138v355zM156 163q0 -29 12.5 -40.5t28.5 -11.5q17 0 29 11.5t12 40.5v374q0 29 -12 40t-29 11q-16 0 -28.5 -11t-12.5 -40v-374zM157 740
l-52 137h102l37 -137h-87z" />
    <glyph glyph-name="Oacute" unicode="&#xd3;" horiz-adv-x="394" 
d="M16 528q0 93 48.5 137.5t130.5 44.5q84 0 133.5 -45.5t49.5 -136.5v-355q0 -92 -49.5 -137.5t-133.5 -45.5q-82 0 -130.5 45t-48.5 138v355zM156 163q0 -29 12.5 -40.5t28.5 -11.5q17 0 29 11.5t12 40.5v374q0 29 -12 40t-29 11q-16 0 -28.5 -11t-12.5 -40v-374zM150 740
l37 137h102l-52 -137h-87z" />
    <glyph glyph-name="Ocircumflex" unicode="&#xd4;" horiz-adv-x="394" 
d="M16 528q0 93 48.5 137.5t130.5 44.5q84 0 133.5 -45.5t49.5 -136.5v-355q0 -92 -49.5 -137.5t-133.5 -45.5q-82 0 -130.5 45t-48.5 138v355zM156 163q0 -29 12.5 -40.5t28.5 -11.5q17 0 29 11.5t12 40.5v374q0 29 -12 40t-29 11q-16 0 -28.5 -11t-12.5 -40v-374zM103 740
l46 137h97l46 -137h-73l-19 64h-5l-19 -64h-73z" />
    <glyph glyph-name="Otilde" unicode="&#xd5;" horiz-adv-x="394" 
d="M16 528q0 93 48.5 137.5t130.5 44.5q84 0 133.5 -45.5t49.5 -136.5v-355q0 -92 -49.5 -137.5t-133.5 -45.5q-82 0 -130.5 45t-48.5 138v355zM156 163q0 -29 12.5 -40.5t28.5 -11.5q17 0 29 11.5t12 40.5v374q0 29 -12 40t-29 11q-16 0 -28.5 -11t-12.5 -40v-374zM293 859
q0 -119 -50 -119q-14 0 -27 7.5t-25 21.5l-3 4q-19 21 -34 21q-19 0 -19 -37v-14h-34v14q0 58 12.5 89t38.5 31q24 0 49 -27l4 -3q20 -22 35 -22q20 0 20 34v15h33v-15z" />
    <glyph glyph-name="Odieresis" unicode="&#xd6;" horiz-adv-x="394" 
d="M16 528q0 93 48.5 137.5t130.5 44.5q84 0 133.5 -45.5t49.5 -136.5v-355q0 -92 -49.5 -137.5t-133.5 -45.5q-82 0 -130.5 45t-48.5 138v355zM156 163q0 -29 12.5 -40.5t28.5 -11.5q17 0 29 11.5t12 40.5v374q0 29 -12 40t-29 11q-16 0 -28.5 -11t-12.5 -40v-374zM68 808
q0 29 12.5 45.5t46.5 16.5t47.5 -17t13.5 -45t-13 -44.5t-47 -16.5q-35 0 -47.5 16.5t-12.5 44.5zM206 808q0 29 12.5 45.5t46.5 16.5t47.5 -17t13.5 -45t-13 -44.5t-47 -16.5q-35 0 -47.5 16.5t-12.5 44.5z" />
    <glyph glyph-name="multiply" unicode="&#xd7;" horiz-adv-x="406" 
d="M387 445l-106 -106l106 -106l-78 -78l-106 106l-106 -106l-78 78l106 106l-106 107l78 77l106 -106l106 106z" />
    <glyph glyph-name="Oslash" unicode="&#xd8;" horiz-adv-x="394" 
d="M16 528q0 93 48.5 137.5t130.5 44.5q42 0 75.5 -11t56.5 -34l22 45l29 -14l-28 -59q28 -44 28 -109v-355q0 -92 -49.5 -137.5t-133.5 -45.5q-41 0 -73.5 10.5t-55.5 33.5l-21 -44l-29 14l28 58q-28 44 -28 111v355zM156 301l82 174v62q0 29 -12 40t-29 11
q-16 0 -28.5 -11t-12.5 -40v-236zM156 163q0 -29 12.5 -40.5t28.5 -11.5q17 0 29 11.5t12 40.5v237l-82 -174v-63z" />
    <glyph glyph-name="Ugrave" unicode="&#xd9;" horiz-adv-x="389" 
d="M156 700v-537q0 -29 12 -40.5t27 -11.5t26.5 11.5t11.5 40.5v537h140v-527q0 -92 -48.5 -137.5t-131.5 -45.5q-82 0 -129.5 45t-47.5 138v527h140zM156 740l-52 137h102l37 -137h-87z" />
    <glyph glyph-name="Uacute" unicode="&#xda;" horiz-adv-x="389" 
d="M156 700v-537q0 -29 12 -40.5t27 -11.5t26.5 11.5t11.5 40.5v537h140v-527q0 -92 -48.5 -137.5t-131.5 -45.5q-82 0 -129.5 45t-47.5 138v527h140zM149 740l37 137h102l-52 -137h-87z" />
    <glyph glyph-name="Ucircumflex" unicode="&#xdb;" horiz-adv-x="389" 
d="M156 700v-537q0 -29 12 -40.5t27 -11.5t26.5 11.5t11.5 40.5v537h140v-527q0 -92 -48.5 -137.5t-131.5 -45.5q-82 0 -129.5 45t-47.5 138v527h140zM101 740l46 137h97l46 -137h-73l-19 64h-5l-19 -64h-73z" />
    <glyph glyph-name="Udieresis" unicode="&#xdc;" horiz-adv-x="389" 
d="M156 700v-537q0 -29 12 -40.5t27 -11.5t26.5 11.5t11.5 40.5v537h140v-527q0 -92 -48.5 -137.5t-131.5 -45.5q-82 0 -129.5 45t-47.5 138v527h140zM67 808q0 29 12.5 45.5t46.5 16.5t47.5 -17t13.5 -45t-13 -44.5t-47 -16.5q-35 0 -47.5 16.5t-12.5 44.5zM205 808
q0 29 12.5 45.5t46.5 16.5t47.5 -17t13.5 -45t-13 -44.5t-47 -16.5q-35 0 -47.5 16.5t-12.5 44.5z" />
    <glyph glyph-name="Yacute" unicode="&#xdd;" horiz-adv-x="366" 
d="M145 700l33 -312h9l33 312h141l-110 -506v-194h-140v194l-106 506h140zM136 740l37 137h102l-52 -137h-87z" />
    <glyph glyph-name="Thorn" unicode="&#xde;" horiz-adv-x="389" 
d="M157 700v-112h33q89 0 136 -59t47 -184v-2q0 -64 -11.5 -108t-34 -71.5t-57 -39.5t-81.5 -12h-32v-112h-140v700h140zM157 234h32q24 0 34 13.5t10 44.5v113q0 32 -10 46.5t-34 14.5h-32v-232z" />
    <glyph glyph-name="germandbls" unicode="&#xdf;" horiz-adv-x="393" 
d="M17 526q0 84 39.5 129t123.5 45h13q88 0 133 -44.5t45 -128.5v-5q0 -37 -9 -66t-23.5 -49t-32.5 -31t-37 -13v-10q20 -2 40 -14t36.5 -34t27 -52t10.5 -68v-11q0 -83 -46.5 -128.5t-137.5 -45.5h-13v122h13q24 0 34.5 16t10.5 47v48q0 28 -11 46t-35 18h-9v121h8
q23 0 32.5 16.5t9.5 46.5v43q0 30 -10 42t-30 12h-4q-16 0 -27 -10.5t-11 -40.5v-527h-140v526z" />
    <glyph glyph-name="agrave" unicode="&#xe0;" 
d="M217 359q0 22 -9 34.5t-24 12.5t-24.5 -12.5t-9.5 -34.5v-61h-133v53q0 78 44 123.5t121 45.5q76 0 121.5 -45.5t45.5 -123.5v-351h-132v50h-4q-39 -60 -98 -60q-45 0 -72.5 30.5t-27.5 80.5v65q0 50 34 80t91 30h77v83zM217 211h-23q-46 0 -46 -37v-44q0 -17 8.5 -26.5
t22.5 -9.5q27 0 38 30v87zM142 550l-52 137h102l37 -137h-87z" />
    <glyph glyph-name="aacute" unicode="&#xe1;" 
d="M217 359q0 22 -9 34.5t-24 12.5t-24.5 -12.5t-9.5 -34.5v-61h-133v53q0 78 44 123.5t121 45.5q76 0 121.5 -45.5t45.5 -123.5v-351h-132v50h-4q-39 -60 -98 -60q-45 0 -72.5 30.5t-27.5 80.5v65q0 50 34 80t91 30h77v83zM217 211h-23q-46 0 -46 -37v-44q0 -17 8.5 -26.5
t22.5 -9.5q27 0 38 30v87zM135 550l37 137h102l-52 -137h-87z" />
    <glyph glyph-name="acircumflex" unicode="&#xe2;" 
d="M217 359q0 22 -9 34.5t-24 12.5t-24.5 -12.5t-9.5 -34.5v-61h-133v53q0 78 44 123.5t121 45.5q76 0 121.5 -45.5t45.5 -123.5v-351h-132v50h-4q-39 -60 -98 -60q-45 0 -72.5 30.5t-27.5 80.5v65q0 50 34 80t91 30h77v83zM217 211h-23q-46 0 -46 -37v-44q0 -17 8.5 -26.5
t22.5 -9.5q27 0 38 30v87zM88 550l46 137h97l46 -137h-73l-19 64h-5l-19 -64h-73z" />
    <glyph glyph-name="atilde" unicode="&#xe3;" 
d="M217 359q0 22 -9 34.5t-24 12.5t-24.5 -12.5t-9.5 -34.5v-61h-133v53q0 78 44 123.5t121 45.5q76 0 121.5 -45.5t45.5 -123.5v-351h-132v50h-4q-39 -60 -98 -60q-45 0 -72.5 30.5t-27.5 80.5v65q0 50 34 80t91 30h77v83zM217 211h-23q-46 0 -46 -37v-44q0 -17 8.5 -26.5
t22.5 -9.5q27 0 38 30v87zM278 669q0 -119 -50 -119q-14 0 -27 7.5t-25 21.5l-3 4q-19 21 -34 21q-19 0 -19 -37v-14h-34v14q0 58 12.5 89t38.5 31q24 0 49 -27l4 -3q20 -22 35 -22q20 0 20 34v15h33v-15z" />
    <glyph glyph-name="adieresis" unicode="&#xe4;" 
d="M217 359q0 22 -9 34.5t-24 12.5t-24.5 -12.5t-9.5 -34.5v-61h-133v53q0 78 44 123.5t121 45.5q76 0 121.5 -45.5t45.5 -123.5v-351h-132v50h-4q-39 -60 -98 -60q-45 0 -72.5 30.5t-27.5 80.5v65q0 50 34 80t91 30h77v83zM217 211h-23q-46 0 -46 -37v-44q0 -17 8.5 -26.5
t22.5 -9.5q27 0 38 30v87zM53 618q0 29 12.5 45.5t46.5 16.5t47.5 -17t13.5 -45t-13 -44.5t-47 -16.5q-35 0 -47.5 16.5t-12.5 44.5zM191 618q0 29 12.5 45.5t46.5 16.5t47.5 -17t13.5 -45t-13 -44.5t-47 -16.5q-35 0 -47.5 16.5t-12.5 44.5z" />
    <glyph glyph-name="aring" unicode="&#xe5;" 
d="M217 359q0 22 -9 34.5t-24 12.5t-24.5 -12.5t-9.5 -34.5v-61h-133v53q0 78 44 123.5t121 45.5q76 0 121.5 -45.5t45.5 -123.5v-351h-132v50h-4q-39 -60 -98 -60q-45 0 -72.5 30.5t-27.5 80.5v65q0 50 34 80t91 30h77v83zM217 211h-23q-46 0 -46 -37v-44q0 -17 8.5 -26.5
t22.5 -9.5q27 0 38 30v87zM99 619q0 36 22 53t60 17t60.5 -17.5t22.5 -52.5q0 -36 -22 -53.5t-60 -17.5q-39 0 -61 17t-22 54zM144 619q0 -31 38 -31q37 0 37 31q0 15 -10.5 22.5t-27.5 7.5q-37 0 -37 -30z" />
    <glyph glyph-name="ae" unicode="&#xe6;" horiz-adv-x="566" 
d="M217 359q0 22 -9 34.5t-24 12.5t-24.5 -12.5t-9.5 -34.5v-61h-133v53q0 78 44 123.5t121 45.5q31 0 54 -10t40 -28h10q17 18 40.5 28t55.5 10q78 0 123.5 -45.5t45.5 -123.5v-124h-202v-75q0 -23 9.5 -35.5t25.5 -12.5t25.5 12.5t9.5 35.5v41h132v-34q0 -78 -45.5 -123.5
t-122.5 -45.5q-55 0 -92 23.5t-54 66.5h-10q-41 -90 -112 -90q-45 0 -72.5 30.5t-27.5 80.5v65q0 50 34 80t91 30h77v83zM349 299h70v60q0 22 -9.5 34.5t-25.5 12.5t-25.5 -12.5t-9.5 -34.5v-60zM217 211h-23q-46 0 -46 -37v-44q0 -36 31 -36q27 0 38 30v87z" />
    <glyph glyph-name="ccedilla" unicode="&#xe7;" 
d="M148 151q0 -22 9.5 -34.5t25.5 -12.5t25.5 12.5t9.5 34.5v82h132v-74q0 -78 -45.5 -123.5t-123.5 -45.5t-122 45.5t-44 123.5v192q0 78 44 123.5t122 45.5t123.5 -45.5t45.5 -123.5v-74h-132v81q0 23 -9.5 35.5t-25.5 12.5t-25.5 -12.5t-9.5 -35.5v-207zM156 -2h55
l-6 -46q50 0 76.5 -20t26.5 -48q0 -29 -30 -52.5t-87 -23.5q-15 0 -33 2t-38 6v52q20 -5 35 -5q24 0 40.5 8.5t16.5 20.5t-19 19t-51 7z" />
    <glyph glyph-name="egrave" unicode="&#xe8;" 
d="M148 152q0 -23 9 -35.5t25 -12.5t25.5 12.5t9.5 35.5v41h133v-34q0 -78 -46 -123.5t-123 -45.5q-78 0 -122 45.5t-44 123.5v192q0 78 44 123.5t122 45.5q77 0 123 -45.5t46 -123.5v-128h-202v-71zM148 295h69v63q0 23 -9.5 35.5t-25.5 12.5t-25 -12.5t-9 -35.5v-63z
M141 550l-52 137h102l37 -137h-87z" />
    <glyph glyph-name="eacute" unicode="&#xe9;" 
d="M148 152q0 -23 9 -35.5t25 -12.5t25.5 12.5t9.5 35.5v41h133v-34q0 -78 -46 -123.5t-123 -45.5q-78 0 -122 45.5t-44 123.5v192q0 78 44 123.5t122 45.5q77 0 123 -45.5t46 -123.5v-128h-202v-71zM148 295h69v63q0 23 -9.5 35.5t-25.5 12.5t-25 -12.5t-9 -35.5v-63z
M134 550l37 137h102l-52 -137h-87z" />
    <glyph glyph-name="ecircumflex" unicode="&#xea;" 
d="M148 152q0 -23 9 -35.5t25 -12.5t25.5 12.5t9.5 35.5v41h133v-34q0 -78 -46 -123.5t-123 -45.5q-78 0 -122 45.5t-44 123.5v192q0 78 44 123.5t122 45.5q77 0 123 -45.5t46 -123.5v-128h-202v-71zM148 295h69v63q0 23 -9.5 35.5t-25.5 12.5t-25 -12.5t-9 -35.5v-63z
M86 550l46 137h97l46 -137h-73l-19 64h-5l-19 -64h-73z" />
    <glyph glyph-name="edieresis" unicode="&#xeb;" 
d="M148 152q0 -23 9 -35.5t25 -12.5t25.5 12.5t9.5 35.5v41h133v-34q0 -78 -46 -123.5t-123 -45.5q-78 0 -122 45.5t-44 123.5v192q0 78 44 123.5t122 45.5q77 0 123 -45.5t46 -123.5v-128h-202v-71zM148 295h69v63q0 23 -9.5 35.5t-25.5 12.5t-25 -12.5t-9 -35.5v-63z
M52 618q0 29 12.5 45.5t46.5 16.5t47.5 -17t13.5 -45t-13 -44.5t-47 -16.5q-35 0 -47.5 16.5t-12.5 44.5zM190 618q0 29 12.5 45.5t46.5 16.5t47.5 -17t13.5 -45t-13 -44.5t-47 -16.5q-35 0 -47.5 16.5t-12.5 44.5z" />
    <glyph glyph-name="igrave" unicode="&#xec;" horiz-adv-x="171" 
d="M152 510v-510h-133v510h133zM46 550l-52 137h102l37 -137h-87z" />
    <glyph glyph-name="iacute" unicode="&#xed;" horiz-adv-x="171" 
d="M152 510v-510h-133v510h133zM39 550l37 137h102l-52 -137h-87z" />
    <glyph glyph-name="icircumflex" unicode="&#xee;" horiz-adv-x="171" 
d="M152 510v-510h-133v510h133zM-9 550l46 137h97l46 -137h-73l-19 64h-5l-19 -64h-73z" />
    <glyph glyph-name="idieresis" unicode="&#xef;" horiz-adv-x="272" 
d="M202 510v-510h-133v510h133zM7 618q0 29 12.5 45.5t46.5 16.5t47.5 -17t13.5 -45t-13 -44.5t-47 -16.5q-35 0 -47.5 16.5t-12.5 44.5zM145 618q0 29 12.5 45.5t46.5 16.5t47.5 -17t13.5 -45t-13 -44.5t-47 -16.5q-35 0 -47.5 16.5t-12.5 44.5z" />
    <glyph glyph-name="eth" unicode="&#xf0;" 
d="M15 356q0 37 11 67.5t28.5 52t40.5 33t47 11.5q28 0 50 -16.5t34 -52.5l9 3q-8 53 -24.5 92.5t-46.5 69.5l-75 -51l-20 28l69 46q-40 30 -102 49l13 32q38 -9 71.5 -21t62.5 -29l71 48l20 -29l-59 -39q135 -97 135 -299v-192q0 -37 -11.5 -68t-33 -53.5t-54 -35
t-74.5 -12.5q-78 0 -120 42.5t-42 108.5v215zM148 151q0 -22 9.5 -34.5t25.5 -12.5q15 0 24.5 12.5t9.5 34.5v208q0 23 -9.5 35t-24.5 12q-16 0 -25.5 -12t-9.5 -35v-208z" />
    <glyph glyph-name="ntilde" unicode="&#xf1;" horiz-adv-x="365" 
d="M16 510h132v-58l10 1q30 67 92 67q42 0 71.5 -34t29.5 -104v-382h-133v363q0 19 -9 30.5t-23 11.5q-12 0 -22 -9t-16 -24v-372h-132v510zM280 669q0 -119 -50 -119q-14 0 -27 7.5t-25 21.5l-3 4q-19 21 -34 21q-19 0 -19 -37v-14h-34v14q0 58 12.5 89t38.5 31
q24 0 49 -27l4 -3q20 -22 35 -22q20 0 20 34v15h33v-15z" />
    <glyph glyph-name="ograve" unicode="&#xf2;" 
d="M15 351q0 37 11 68t32 53.5t52 35t71 12.5q41 0 72 -12.5t53 -35t33 -53.5t11 -68v-192q0 -37 -11 -68t-33 -53.5t-53 -35t-72 -12.5q-40 0 -71 12.5t-52 35t-32 53.5t-11 68v192zM148 151q0 -22 9.5 -34.5t25.5 -12.5t25.5 12.5t9.5 34.5v207q0 23 -9.5 35.5t-25.5 12.5
t-25.5 -12.5t-9.5 -35.5v-207zM141 550l-52 137h102l37 -137h-87z" />
    <glyph glyph-name="oacute" unicode="&#xf3;" 
d="M15 351q0 37 11 68t32 53.5t52 35t71 12.5q41 0 72 -12.5t53 -35t33 -53.5t11 -68v-192q0 -37 -11 -68t-33 -53.5t-53 -35t-72 -12.5q-40 0 -71 12.5t-52 35t-32 53.5t-11 68v192zM148 151q0 -22 9.5 -34.5t25.5 -12.5t25.5 12.5t9.5 34.5v207q0 23 -9.5 35.5t-25.5 12.5
t-25.5 -12.5t-9.5 -35.5v-207zM134 550l37 137h102l-52 -137h-87z" />
    <glyph glyph-name="ocircumflex" unicode="&#xf4;" 
d="M15 351q0 37 11 68t32 53.5t52 35t71 12.5q41 0 72 -12.5t53 -35t33 -53.5t11 -68v-192q0 -37 -11 -68t-33 -53.5t-53 -35t-72 -12.5q-40 0 -71 12.5t-52 35t-32 53.5t-11 68v192zM148 151q0 -22 9.5 -34.5t25.5 -12.5t25.5 12.5t9.5 34.5v207q0 23 -9.5 35.5t-25.5 12.5
t-25.5 -12.5t-9.5 -35.5v-207zM87 550l46 137h97l46 -137h-73l-19 64h-5l-19 -64h-73z" />
    <glyph glyph-name="otilde" unicode="&#xf5;" 
d="M15 351q0 37 11 68t32 53.5t52 35t71 12.5q41 0 72 -12.5t53 -35t33 -53.5t11 -68v-192q0 -37 -11 -68t-33 -53.5t-53 -35t-72 -12.5q-40 0 -71 12.5t-52 35t-32 53.5t-11 68v192zM148 151q0 -22 9.5 -34.5t25.5 -12.5t25.5 12.5t9.5 34.5v207q0 23 -9.5 35.5t-25.5 12.5
t-25.5 -12.5t-9.5 -35.5v-207zM277 669q0 -119 -50 -119q-14 0 -27 7.5t-25 21.5l-3 4q-19 21 -34 21q-19 0 -19 -37v-14h-34v14q0 58 12.5 89t38.5 31q24 0 49 -27l4 -3q20 -22 35 -22q20 0 20 34v15h33v-15z" />
    <glyph glyph-name="odieresis" unicode="&#xf6;" 
d="M15 351q0 37 11 68t32 53.5t52 35t71 12.5q41 0 72 -12.5t53 -35t33 -53.5t11 -68v-192q0 -37 -11 -68t-33 -53.5t-53 -35t-72 -12.5q-40 0 -71 12.5t-52 35t-32 53.5t-11 68v192zM148 151q0 -22 9.5 -34.5t25.5 -12.5t25.5 12.5t9.5 34.5v207q0 23 -9.5 35.5t-25.5 12.5
t-25.5 -12.5t-9.5 -35.5v-207zM52 618q0 29 12.5 45.5t46.5 16.5t47.5 -17t13.5 -45t-13 -44.5t-47 -16.5q-35 0 -47.5 16.5t-12.5 44.5zM190 618q0 29 12.5 45.5t46.5 16.5t47.5 -17t13.5 -45t-13 -44.5t-47 -16.5q-35 0 -47.5 16.5t-12.5 44.5z" />
    <glyph glyph-name="divide" unicode="&#xf7;" horiz-adv-x="393" 
d="M374 292h-356v102h356v-102zM133.101 486.002q0 31.501 16.2002 49.0508q16.2002 17.5508 47.7012 17.5508q30.6016 0 47.252 -18q16.6504 -18.001 16.6504 -49.502t-16.2012 -49.0508q-16.2002 -17.5508 -47.7012 -17.5508t-47.7012 17.5508
q-16.2002 17.5498 -16.2002 49.9512zM133.101 203.002q0 31.501 16.2002 49.0508q16.2002 17.5508 47.7012 17.5508q30.6016 0 47.252 -18q16.6504 -18.001 16.6504 -49.502t-16.2012 -49.0508q-16.2002 -17.5508 -47.7012 -17.5508t-47.7012 17.5508
q-16.2002 17.5498 -16.2002 49.9512z" />
    <glyph glyph-name="oslash" unicode="&#xf8;" 
d="M15 351q0 37 11 68t32 53.5t52 35t71 12.5q37 0 66.5 -10.5t50.5 -29.5l24 40l28 -16l-30 -49q30 -42 30 -104v-192q0 -37 -11 -68t-33 -53.5t-53 -35t-72 -12.5q-36 0 -65 10t-49 28l-23 -38l-28 16l28 48q-29 43 -29 105v192zM148 228l70 117v13q0 23 -9.5 35.5
t-25.5 12.5t-25.5 -12.5t-9.5 -35.5v-130zM148 151q0 -22 9.5 -34.5t25.5 -12.5t25.5 12.5t9.5 34.5v131l-70 -118v-13z" />
    <glyph glyph-name="ugrave" unicode="&#xf9;" 
d="M349 0h-133v58h-9q-32 -68 -92 -68q-42 0 -71 34t-29 104v382h133v-366q0 -19 8 -30.5t22 -11.5q12 0 22 9t16 24v375h133v-510zM141 550l-52 137h102l37 -137h-87z" />
    <glyph glyph-name="uacute" unicode="&#xfa;" 
d="M349 0h-133v58h-9q-32 -68 -92 -68q-42 0 -71 34t-29 104v382h133v-366q0 -19 8 -30.5t22 -11.5q12 0 22 9t16 24v375h133v-510zM134 550l37 137h102l-52 -137h-87z" />
    <glyph glyph-name="ucircumflex" unicode="&#xfb;" 
d="M349 0h-133v58h-9q-32 -68 -92 -68q-42 0 -71 34t-29 104v382h133v-366q0 -19 8 -30.5t22 -11.5q12 0 22 9t16 24v375h133v-510zM87 550l46 137h97l46 -137h-73l-19 64h-5l-19 -64h-73z" />
    <glyph glyph-name="udieresis" unicode="&#xfc;" 
d="M349 0h-133v58h-9q-32 -68 -92 -68q-42 0 -71 34t-29 104v382h133v-366q0 -19 8 -30.5t22 -11.5q12 0 22 9t16 24v375h133v-510zM52 618q0 29 12.5 45.5t46.5 16.5t47.5 -17t13.5 -45t-13 -44.5t-47 -16.5q-35 0 -47.5 16.5t-12.5 44.5zM190 618q0 29 12.5 45.5
t46.5 16.5t47.5 -17t13.5 -45t-13 -44.5t-47 -16.5q-35 0 -47.5 16.5t-12.5 44.5z" />
    <glyph glyph-name="yacute" unicode="&#xfd;" horiz-adv-x="365" 
d="M351 -56q0 -73 -43.5 -113.5t-122.5 -40.5q-78 0 -122.5 40.5t-44.5 112.5v25h133v-17q0 -22 9 -34.5t24 -12.5q34 0 34 49v105h-9q-33 -68 -94 -68q-41 0 -70 34t-29 104v382h133v-366q0 -19 8 -30.5t22 -11.5q12 0 22.5 9t16.5 24v375h133v-566zM134 550l37 137h102
l-52 -137h-87z" />
    <glyph glyph-name="thorn" unicode="&#xfe;" horiz-adv-x="365" 
d="M16 720h133v-265h9q30 65 94 65q45 0 72 -33.5t27 -97.5v-256q0 -65 -28 -104t-74 -39q-29 0 -53 16.5t-38 48.5h-9v-265h-133v930zM149 137q5 -14 15.5 -22.5t21.5 -8.5q14 0 23 12t9 31v213q0 18 -9 30t-23 12q-11 0 -21.5 -9t-15.5 -23v-235z" />
    <glyph glyph-name="ydieresis" unicode="&#xff;" horiz-adv-x="365" 
d="M351 -56q0 -73 -43.5 -113.5t-122.5 -40.5q-78 0 -122.5 40.5t-44.5 112.5v25h133v-17q0 -22 9 -34.5t24 -12.5q34 0 34 49v105h-9q-33 -68 -94 -68q-41 0 -70 34t-29 104v382h133v-366q0 -19 8 -30.5t22 -11.5q12 0 22.5 9t16.5 24v375h133v-566zM52 618q0 29 12.5 45.5
t46.5 16.5t47.5 -17t13.5 -45t-13 -44.5t-47 -16.5q-35 0 -47.5 16.5t-12.5 44.5zM190 618q0 29 12.5 45.5t46.5 16.5t47.5 -17t13.5 -45t-13 -44.5t-47 -16.5q-35 0 -47.5 16.5t-12.5 44.5z" />
    <glyph glyph-name="Amacron" unicode="&#x100;" horiz-adv-x="382" 
d="M302 701l75 -700h-140l-16 173h-61l-15 -173h-140l78 700h219zM210 296l-14 167h-10l-15 -167h39zM297 758h-213v102h213v-102z" />
    <glyph glyph-name="amacron" unicode="&#x101;" 
d="M217 359q0 22 -9 34.5t-24 12.5t-24.5 -12.5t-9.5 -34.5v-61h-133v53q0 78 44 123.5t121 45.5q76 0 121.5 -45.5t45.5 -123.5v-351h-132v50h-4q-39 -60 -98 -60q-45 0 -72.5 30.5t-27.5 80.5v65q0 50 34 80t91 30h77v83zM217 211h-23q-46 0 -46 -37v-44q0 -17 8.5 -26.5
t22.5 -9.5q27 0 38 30v87zM288 568h-213v102h213v-102z" />
    <glyph glyph-name="Abreve" unicode="&#x102;" horiz-adv-x="382" 
d="M302 701l75 -700h-140l-16 173h-61l-15 -173h-140l78 700h219zM210 296l-14 167h-10l-15 -167h39zM154 877q0 -25 8 -41t29 -16t29.5 16t8.5 41h79q0 -72 -28.5 -104.5t-88.5 -32.5t-88.5 32.5t-28.5 104.5h80z" />
    <glyph glyph-name="abreve" unicode="&#x103;" 
d="M217 359q0 22 -9 34.5t-24 12.5t-24.5 -12.5t-9.5 -34.5v-61h-133v53q0 78 44 123.5t121 45.5q76 0 121.5 -45.5t45.5 -123.5v-351h-132v50h-4q-39 -60 -98 -60q-45 0 -72.5 30.5t-27.5 80.5v65q0 50 34 80t91 30h77v83zM217 211h-23q-46 0 -46 -37v-44q0 -17 8.5 -26.5
t22.5 -9.5q27 0 38 30v87zM145 687q0 -25 8 -41t29 -16t29.5 16t8.5 41h79q0 -72 -28.5 -104.5t-88.5 -32.5t-88.5 32.5t-28.5 104.5h80z" />
    <glyph glyph-name="Aogonek" unicode="&#x104;" horiz-adv-x="382" 
d="M302 701l75 -700h-140l-16 173h-61l-15 -173h-140l78 700h219zM210 296l-14 167h-10l-15 -167h39zM374 7v-8q-30 -1 -48.5 -20t-18.5 -42q0 -18 11 -30t33 -12q6 0 12.5 1t13.5 3v-68q-31 -9 -59 -9q-48 0 -74 23.5t-26 55.5q0 19 10 38t29.5 34t49 24.5t67.5 9.5z" />
    <glyph glyph-name="aogonek" unicode="&#x105;" 
d="M217 359q0 22 -9 34.5t-24 12.5t-24.5 -12.5t-9.5 -34.5v-61h-133v53q0 78 44 123.5t121 45.5q76 0 121.5 -45.5t45.5 -123.5v-351h-132v50h-4q-39 -60 -98 -60q-45 0 -72.5 30.5t-27.5 80.5v65q0 50 34 80t91 30h77v83zM217 211h-23q-46 0 -46 -37v-44q0 -17 8.5 -26.5
t22.5 -9.5q27 0 38 30v87zM345 7v-8q-30 -1 -48.5 -20t-18.5 -42q0 -18 11 -30t33 -12q6 0 12.5 1t13.5 3v-68q-31 -9 -59 -9q-48 0 -74 23.5t-26 55.5q0 19 10 38t29.5 34t49 24.5t67.5 9.5z" />
    <glyph glyph-name="Cacute" unicode="&#x106;" horiz-adv-x="394" 
d="M156 163q0 -29 12.5 -40t28.5 -11t28.5 11t12.5 40v160h140v-149q0 -92 -49.5 -138t-133.5 -46q-82 0 -130.5 45t-48.5 139v354q0 93 48.5 138t130.5 45q84 0 133.5 -46t49.5 -137v-150h-140v160q0 29 -12.5 40t-28.5 11t-28.5 -11t-12.5 -40v-375zM150 740l37 137h102
l-52 -137h-87z" />
    <glyph glyph-name="cacute" unicode="&#x107;" 
d="M148 151q0 -22 9.5 -34.5t25.5 -12.5t25.5 12.5t9.5 34.5v82h132v-74q0 -78 -45.5 -123.5t-123.5 -45.5t-122 45.5t-44 123.5v192q0 78 44 123.5t122 45.5t123.5 -45.5t45.5 -123.5v-74h-132v81q0 23 -9.5 35.5t-25.5 12.5t-25.5 -12.5t-9.5 -35.5v-207zM134 550l37 137
h102l-52 -137h-87z" />
    <glyph glyph-name="Ccircumflex" unicode="&#x108;" horiz-adv-x="394" 
d="M156 163q0 -29 12.5 -40t28.5 -11t28.5 11t12.5 40v160h140v-149q0 -92 -49.5 -138t-133.5 -46q-82 0 -130.5 45t-48.5 139v354q0 93 48.5 138t130.5 45q84 0 133.5 -46t49.5 -137v-150h-140v160q0 29 -12.5 40t-28.5 11t-28.5 -11t-12.5 -40v-375zM103 740l46 137h97
l46 -137h-73l-19 64h-5l-19 -64h-73z" />
    <glyph glyph-name="ccircumflex" unicode="&#x109;" 
d="M148 151q0 -22 9.5 -34.5t25.5 -12.5t25.5 12.5t9.5 34.5v82h132v-74q0 -78 -45.5 -123.5t-123.5 -45.5t-122 45.5t-44 123.5v192q0 78 44 123.5t122 45.5t123.5 -45.5t45.5 -123.5v-74h-132v81q0 23 -9.5 35.5t-25.5 12.5t-25.5 -12.5t-9.5 -35.5v-207zM87 550l46 137
h97l46 -137h-73l-19 64h-5l-19 -64h-73z" />
    <glyph glyph-name="Cdotaccent" unicode="&#x10a;" horiz-adv-x="394" 
d="M156 163q0 -29 12.5 -40t28.5 -11t28.5 11t12.5 40v160h140v-149q0 -92 -49.5 -138t-133.5 -46q-82 0 -130.5 45t-48.5 139v354q0 93 48.5 138t130.5 45q84 0 133.5 -46t49.5 -137v-150h-140v160q0 29 -12.5 40t-28.5 11t-28.5 -11t-12.5 -40v-375zM136 809
q0 28 12.5 44.5t46.5 16.5q35 0 48 -17t13 -45t-13 -44.5t-47 -16.5t-47 16.5t-13 45.5z" />
    <glyph glyph-name="cdotaccent" unicode="&#x10b;" 
d="M148 151q0 -22 9.5 -34.5t25.5 -12.5t25.5 12.5t9.5 34.5v82h132v-74q0 -78 -45.5 -123.5t-123.5 -45.5t-122 45.5t-44 123.5v192q0 78 44 123.5t122 45.5t123.5 -45.5t45.5 -123.5v-74h-132v81q0 23 -9.5 35.5t-25.5 12.5t-25.5 -12.5t-9.5 -35.5v-207zM121 619
q0 28 12.5 44.5t46.5 16.5q35 0 48 -17t13 -45t-13 -44.5t-47 -16.5t-47 16.5t-13 45.5z" />
    <glyph glyph-name="Ccaron" unicode="&#x10c;" horiz-adv-x="394" 
d="M156 163q0 -29 12.5 -40t28.5 -11t28.5 11t12.5 40v160h140v-149q0 -92 -49.5 -138t-133.5 -46q-82 0 -130.5 45t-48.5 139v354q0 93 48.5 138t130.5 45q84 0 133.5 -46t49.5 -137v-150h-140v160q0 29 -12.5 40t-28.5 11t-28.5 -11t-12.5 -40v-375zM292 878l-46 -137h-98
l-46 137h74l19 -64h5l18 64h74z" />
    <glyph glyph-name="ccaron" unicode="&#x10d;" 
d="M148 151q0 -22 9.5 -34.5t25.5 -12.5t25.5 12.5t9.5 34.5v82h132v-74q0 -78 -45.5 -123.5t-123.5 -45.5t-122 45.5t-44 123.5v192q0 78 44 123.5t122 45.5t123.5 -45.5t45.5 -123.5v-74h-132v81q0 23 -9.5 35.5t-25.5 12.5t-25.5 -12.5t-9.5 -35.5v-207zM276 688
l-46 -137h-98l-46 137h74l19 -64h5l18 64h74z" />
    <glyph glyph-name="Dcaron" unicode="&#x10e;" horiz-adv-x="391" 
d="M193 700q82 0 132 -42t50 -132v-352q0 -90 -50 -132t-132 -42h-176v700h176zM158 122h34q19 0 31 10.5t12 39.5v356q0 29 -12 39.5t-31 10.5h-34v-456zM281 878l-46 -137h-98l-46 137h74l19 -64h5l18 64h74z" />
    <glyph glyph-name="dcaron" unicode="&#x10f;" 
d="M216 0v55h-9q-15 -32 -38.5 -48.5t-49.5 -16.5q-21 0 -39.5 10t-33 30t-23 49t-8.5 66v247q0 65 30 96.5t70 31.5q30 0 55 -16.5t37 -46.5h9v263h133v-720h-133zM216 375q-5 13 -14.5 21t-20.5 8q-15 0 -24 -11.5t-9 -30.5v-212q0 -18 9 -30t23 -12q12 0 21.5 8t14.5 22
v237zM393 720h94l-65 -245h-54z" />
    <glyph glyph-name="Dcroat" unicode="&#x110;" horiz-adv-x="410" 
d="M212 701q83 0 132.5 -42.5t49.5 -131.5v-353q0 -90 -49.5 -132t-132.5 -42h-176v303h-28v92l28 -1v307h176zM177 395h34v-92h-34v-181h34q20 0 32 10.5t12 39.5v357q0 29 -12 39.5t-32 10.5h-34v-184z" />
    <glyph glyph-name="dcroat" unicode="&#x111;" 
d="M216 0v55h-9q-15 -32 -38.5 -48.5t-49.5 -16.5q-21 0 -39.5 10t-33 30t-23 49t-8.5 66v247q0 65 30 96.5t70 31.5q30 0 55 -16.5t37 -46.5h9v263h133v-720h-133zM216 375q-5 13 -14.5 21t-20.5 8q-15 0 -24 -11.5t-9 -30.5v-212q0 -18 9 -30t23 -12q12 0 21.5 8t14.5 22
v237zM386 571h-238v92h238v-92z" />
    <glyph glyph-name="Emacron" unicode="&#x112;" horiz-adv-x="285" 
d="M157 579v-151h113v-122h-113v-184h118v-122h-258v701h255v-122h-115zM252 758h-213v102h213v-102z" />
    <glyph glyph-name="emacron" unicode="&#x113;" 
d="M148 152q0 -23 9 -35.5t25 -12.5t25.5 12.5t9.5 35.5v41h133v-34q0 -78 -46 -123.5t-123 -45.5q-78 0 -122 45.5t-44 123.5v192q0 78 44 123.5t122 45.5q77 0 123 -45.5t46 -123.5v-128h-202v-71zM148 295h69v63q0 23 -9.5 35.5t-25.5 12.5t-25 -12.5t-9 -35.5v-63z
M287 568h-213v102h213v-102z" />
    <glyph glyph-name="Ebreve" unicode="&#x114;" horiz-adv-x="285" 
d="M157 579v-151h113v-122h-113v-184h118v-122h-258v701h255v-122h-115zM109 877q0 -25 8 -41t29 -16t29.5 16t8.5 41h79q0 -72 -28.5 -104.5t-88.5 -32.5t-88.5 32.5t-28.5 104.5h80z" />
    <glyph glyph-name="ebreve" unicode="&#x115;" 
d="M148 152q0 -23 9 -35.5t25 -12.5t25.5 12.5t9.5 35.5v41h133v-34q0 -78 -46 -123.5t-123 -45.5q-78 0 -122 45.5t-44 123.5v192q0 78 44 123.5t122 45.5q77 0 123 -45.5t46 -123.5v-128h-202v-71zM148 295h69v63q0 23 -9.5 35.5t-25.5 12.5t-25 -12.5t-9 -35.5v-63z
M143 687q0 -25 8 -41t29 -16t29.5 16t8.5 41h79q0 -72 -28.5 -104.5t-88.5 -32.5t-88.5 32.5t-28.5 104.5h80z" />
    <glyph glyph-name="Edotaccent" unicode="&#x116;" horiz-adv-x="285" 
d="M157 579v-151h113v-122h-113v-184h118v-122h-258v701h255v-122h-115zM86 809q0 28 12.5 44.5t46.5 16.5q35 0 48 -17t13 -45t-13 -44.5t-47 -16.5t-47 16.5t-13 45.5z" />
    <glyph glyph-name="edotaccent" unicode="&#x117;" 
d="M148 152q0 -23 9 -35.5t25 -12.5t25.5 12.5t9.5 35.5v41h133v-34q0 -78 -46 -123.5t-123 -45.5q-78 0 -122 45.5t-44 123.5v192q0 78 44 123.5t122 45.5q77 0 123 -45.5t46 -123.5v-128h-202v-71zM148 295h69v63q0 23 -9.5 35.5t-25.5 12.5t-25 -12.5t-9 -35.5v-63z
M120 619q0 28 12.5 44.5t46.5 16.5q35 0 48 -17t13 -45t-13 -44.5t-47 -16.5t-47 16.5t-13 45.5z" />
    <glyph glyph-name="Eogonek" unicode="&#x118;" horiz-adv-x="285" 
d="M157 579v-151h113v-122h-113v-184h118v-122h-258v701h255v-122h-115zM272 7v-8q-30 -1 -48.5 -20t-18.5 -42q0 -18 11 -30t33 -12q6 0 12.5 1t13.5 3v-68q-31 -9 -59 -9q-48 0 -74 23.5t-26 55.5q0 19 10 38t29.5 34t49 24.5t67.5 9.5z" />
    <glyph glyph-name="eogonek" unicode="&#x119;" 
d="M148 152q0 -23 9 -35.5t25 -12.5t25.5 12.5t9.5 35.5v41h133v-34q0 -78 -46 -123.5t-123 -45.5q-78 0 -122 45.5t-44 123.5v192q0 78 44 123.5t122 45.5q77 0 123 -45.5t46 -123.5v-128h-202v-71zM148 295h69v63q0 23 -9.5 35.5t-25.5 12.5t-25 -12.5t-9 -35.5v-63z
M239 6v-8q-26 -2 -42 -21t-16 -40q0 -17 11 -29.5t33 -12.5q11 0 26 5v-69q-31 -9 -59 -9q-48 0 -74 23.5t-26 55.5q0 19 9 37t27.5 32.5t46 24t64.5 11.5z" />
    <glyph glyph-name="Ecaron" unicode="&#x11a;" horiz-adv-x="285" 
d="M157 579v-151h113v-122h-113v-184h118v-122h-258v701h255v-122h-115zM241 878l-46 -137h-98l-46 137h74l19 -64h5l18 64h74z" />
    <glyph glyph-name="ecaron" unicode="&#x11b;" 
d="M148 152q0 -23 9 -35.5t25 -12.5t25.5 12.5t9.5 35.5v41h133v-34q0 -78 -46 -123.5t-123 -45.5q-78 0 -122 45.5t-44 123.5v192q0 78 44 123.5t122 45.5q77 0 123 -45.5t46 -123.5v-128h-202v-71zM148 295h69v63q0 23 -9.5 35.5t-25.5 12.5t-25 -12.5t-9 -35.5v-63z
M275 688l-46 -137h-98l-46 137h74l19 -64h5l18 64h74z" />
    <glyph glyph-name="Gcircumflex" unicode="&#x11c;" horiz-adv-x="394" 
d="M156 163q0 -26 11 -38.5t26 -12.5q17 0 31 16t14 50v113h-45v91h185v-381h-97v69h-9q-12 -39 -44 -59.5t-70 -20.5q-25 0 -50.5 10.5t-46 33t-33 57.5t-12.5 83v354q0 94 48.5 138.5t130.5 44.5q83 0 133 -46t50 -137v-112h-140v122q0 29 -12.5 40t-28.5 11t-28.5 -11
t-12.5 -40v-375zM103 740l46 137h97l46 -137h-73l-19 64h-5l-19 -64h-73z" />
    <glyph glyph-name="gcircumflex" unicode="&#x11d;" 
d="M349 -56q0 -73 -43.5 -113.5t-121.5 -40.5t-122.5 40.5t-44.5 112.5v25h133v-17q0 -22 9 -34.5t25 -12.5q15 0 24 13t9 36v105h-10q-14 -33 -38 -50.5t-53 -17.5q-46 0 -73.5 39t-27.5 105v248q0 63 27 100.5t72 37.5q29 0 53.5 -17t39.5 -51h10v58h132v-566zM217 368
q-6 16 -16.5 25.5t-21.5 9.5q-14 0 -22.5 -12t-8.5 -30v-209q0 -20 8.5 -33t22.5 -13q11 0 21.5 10t16.5 26v226zM73 550l46 137h97l46 -137h-73l-19 64h-5l-19 -64h-73z" />
    <glyph glyph-name="Gbreve" unicode="&#x11e;" horiz-adv-x="394" 
d="M156 163q0 -26 11 -38.5t26 -12.5q17 0 31 16t14 50v113h-45v91h185v-381h-97v69h-9q-12 -39 -44 -59.5t-70 -20.5q-25 0 -50.5 10.5t-46 33t-33 57.5t-12.5 83v354q0 94 48.5 138.5t130.5 44.5q83 0 133 -46t50 -137v-112h-140v122q0 29 -12.5 40t-28.5 11t-28.5 -11
t-12.5 -40v-375zM159 877q0 -25 8 -41t29 -16t29.5 16t8.5 41h79q0 -72 -28.5 -104.5t-88.5 -32.5t-88.5 32.5t-28.5 104.5h80z" />
    <glyph glyph-name="gbreve" unicode="&#x11f;" 
d="M349 -56q0 -73 -43.5 -113.5t-121.5 -40.5t-122.5 40.5t-44.5 112.5v25h133v-17q0 -22 9 -34.5t25 -12.5q15 0 24 13t9 36v105h-10q-14 -33 -38 -50.5t-53 -17.5q-46 0 -73.5 39t-27.5 105v248q0 63 27 100.5t72 37.5q29 0 53.5 -17t39.5 -51h10v58h132v-566zM217 368
q-6 16 -16.5 25.5t-21.5 9.5q-14 0 -22.5 -12t-8.5 -30v-209q0 -20 8.5 -33t22.5 -13q11 0 21.5 10t16.5 26v226zM130 687q0 -25 8 -41t29 -16t29.5 16t8.5 41h79q0 -72 -28.5 -104.5t-88.5 -32.5t-88.5 32.5t-28.5 104.5h80z" />
    <glyph glyph-name="Gdotaccent" unicode="&#x120;" horiz-adv-x="394" 
d="M156 163q0 -26 11 -38.5t26 -12.5q17 0 31 16t14 50v113h-45v91h185v-381h-97v69h-9q-12 -39 -44 -59.5t-70 -20.5q-25 0 -50.5 10.5t-46 33t-33 57.5t-12.5 83v354q0 94 48.5 138.5t130.5 44.5q83 0 133 -46t50 -137v-112h-140v122q0 29 -12.5 40t-28.5 11t-28.5 -11
t-12.5 -40v-375zM136 809q0 28 12.5 44.5t46.5 16.5q35 0 48 -17t13 -45t-13 -44.5t-47 -16.5t-47 16.5t-13 45.5z" />
    <glyph glyph-name="gdotaccent" unicode="&#x121;" 
d="M349 -56q0 -73 -43.5 -113.5t-121.5 -40.5t-122.5 40.5t-44.5 112.5v25h133v-17q0 -22 9 -34.5t25 -12.5q15 0 24 13t9 36v105h-10q-14 -33 -38 -50.5t-53 -17.5q-46 0 -73.5 39t-27.5 105v248q0 63 27 100.5t72 37.5q29 0 53.5 -17t39.5 -51h10v58h132v-566zM217 368
q-6 16 -16.5 25.5t-21.5 9.5q-14 0 -22.5 -12t-8.5 -30v-209q0 -20 8.5 -33t22.5 -13q11 0 21.5 10t16.5 26v226zM107 619q0 28 12.5 44.5t46.5 16.5q35 0 48 -17t13 -45t-13 -44.5t-47 -16.5t-47 16.5t-13 45.5z" />
    <glyph glyph-name="uni0122" unicode="&#x122;" horiz-adv-x="394" 
d="M156 163q0 -26 11 -38.5t26 -12.5q17 0 31 16t14 50v113h-45v91h185v-381h-97v69h-9q-12 -39 -44 -59.5t-70 -20.5q-25 0 -50.5 10.5t-46 33t-33 57.5t-12.5 83v354q0 94 48.5 138.5t130.5 44.5q83 0 133 -46t50 -137v-112h-140v122q0 29 -12.5 40t-28.5 11t-28.5 -11
t-12.5 -40v-375zM151 -40h109l-55 -137h-70z" />
    <glyph glyph-name="uni0123" unicode="&#x123;" 
d="M349 -56q0 -73 -43.5 -113.5t-121.5 -40.5t-122.5 40.5t-44.5 112.5v25h133v-17q0 -22 9 -34.5t25 -12.5q15 0 24 13t9 36v105h-10q-14 -33 -38 -50.5t-53 -17.5q-46 0 -73.5 39t-27.5 105v248q0 63 27 100.5t72 37.5q29 0 53.5 -17t39.5 -51h10v58h132v-566zM217 368
q-6 16 -16.5 25.5t-21.5 9.5q-14 0 -22.5 -12t-8.5 -30v-209q0 -20 8.5 -33t22.5 -13q11 0 21.5 10t16.5 26v226zM237 549h-108l55 136h70z" />
    <glyph glyph-name="Hcircumflex" unicode="&#x124;" horiz-adv-x="387" 
d="M371 700v-700h-141v298h-72v-298h-140v700h140v-280h72v280h141zM99 740l46 137h97l46 -137h-73l-19 64h-5l-19 -64h-73z" />
    <glyph glyph-name="hcircumflex" unicode="&#x125;" horiz-adv-x="365" 
d="M16 720h133v-268h10q30 68 92 68q42 0 71 -34t29 -104v-382h-133v361q0 19 -8.5 30.5t-22.5 11.5q-11 0 -21.5 -9t-16.5 -23v-371h-133v720zM-14 750l46 137h97l46 -137h-73l-19 64h-5l-19 -64h-73z" />
    <glyph glyph-name="Hbar" unicode="&#x126;" horiz-adv-x="387" 
d="M371 700v-120h24v-80h-24v-500h-141v298h-72v-298h-140v500h-26v80h26v120h140v-120h72v120h141zM230 420v80h-72v-80h72z" />
    <glyph glyph-name="hbar" unicode="&#x127;" horiz-adv-x="365" 
d="M16 720h133v-268h10q30 68 92 68q42 0 71 -34t29 -104v-382h-133v361q0 19 -8.5 30.5t-22.5 11.5q-11 0 -21.5 -9t-16.5 -23v-371h-133v720zM217 571h-238v92h238v-92z" />
    <glyph glyph-name="Itilde" unicode="&#x128;" horiz-adv-x="174" 
d="M157 700v-700h-140v700h140zM183 859q0 -119 -50 -119q-14 0 -27 7.5t-25 21.5l-3 4q-19 21 -34 21q-19 0 -19 -37v-14h-34v14q0 58 12.5 89t38.5 31q24 0 49 -27l4 -3q20 -22 35 -22q20 0 20 34v15h33v-15z" />
    <glyph glyph-name="itilde" unicode="&#x129;" horiz-adv-x="171" 
d="M152 510v-510h-133v510h133zM182 669q0 -119 -50 -119q-14 0 -27 7.5t-25 21.5l-3 4q-19 21 -34 21q-19 0 -19 -37v-14h-34v14q0 58 12.5 89t38.5 31q24 0 49 -27l4 -3q20 -22 35 -22q20 0 20 34v15h33v-15z" />
    <glyph glyph-name="Imacron" unicode="&#x12a;" horiz-adv-x="174" 
d="M157 700v-700h-140v700h140zM193 758h-213v102h213v-102z" />
    <glyph glyph-name="imacron" unicode="&#x12b;" horiz-adv-x="171" 
d="M152 510v-510h-133v510h133zM192 568h-213v102h213v-102z" />
    <glyph glyph-name="Ibreve" unicode="&#x12c;" horiz-adv-x="174" 
d="M157 700v-700h-140v700h140zM50 877q0 -25 8 -41t29 -16t29.5 16t8.5 41h79q0 -72 -28.5 -104.5t-88.5 -32.5t-88.5 32.5t-28.5 104.5h80z" />
    <glyph glyph-name="ibreve" unicode="&#x12d;" horiz-adv-x="171" 
d="M152 510v-510h-133v510h133zM48 687q0 -25 8 -41t29 -16t29.5 16t8.5 41h79q0 -72 -28.5 -104.5t-88.5 -32.5t-88.5 32.5t-28.5 104.5h80z" />
    <glyph glyph-name="Iogonek" unicode="&#x12e;" horiz-adv-x="174" 
d="M157 700v-700h-140v700h140zM153 7v-8q-30 -1 -48.5 -20t-18.5 -42q0 -18 11 -30t33 -12q6 0 12.5 1t13.5 3v-68q-31 -9 -59 -9q-48 0 -74 23.5t-26 55.5q0 19 10 38t29.5 34t49 24.5t67.5 9.5z" />
    <glyph glyph-name="iogonek" unicode="&#x12f;" horiz-adv-x="171" 
d="M11 626q0 34 20 50.5t55 16.5t55 -17t20 -50q0 -35 -19.5 -51.5t-54.5 -16.5t-55.5 16.5t-20.5 51.5zM153 510v-510h-133v510h133zM163 -3v-8q-30 -1 -48.5 -20t-18.5 -42q0 -18 11 -30t33 -12q6 0 12.5 1t13.5 3v-68q-31 -9 -59 -9q-48 0 -74 23.5t-26 55.5q0 19 10 38
t29.5 34t49 24.5t67.5 9.5z" />
    <glyph glyph-name="Idotaccent" unicode="&#x130;" horiz-adv-x="174" 
d="M157 700v-700h-140v700h140zM27 809q0 28 12.5 44.5t46.5 16.5q35 0 48 -17t13 -45t-13 -44.5t-47 -16.5t-47 16.5t-13 45.5z" />
    <glyph glyph-name="dotlessi" unicode="&#x131;" horiz-adv-x="171" 
d="M152 510v-510h-133v510h133z" />
    <glyph glyph-name="IJ" unicode="&#x132;" horiz-adv-x="560" 
d="M157 700v-700h-140v700h140zM544 700v-527q0 -92 -48 -137.5t-132 -45.5q-83 0 -129 45t-46 138v145h140v-155q0 -29 11.5 -40.5t26.5 -11.5t26 11.5t11 40.5v537h140z" />
    <glyph glyph-name="ij" unicode="&#x133;" horiz-adv-x="344" 
d="M11 626q0 34 20 50.5t55 16.5t55 -17t20 -50q0 -35 -19.5 -51.5t-54.5 -16.5t-55.5 16.5t-20.5 51.5zM153 510v-510h-133v510h133zM185 627q0 35 19.5 51t53.5 16q35 0 55.5 -16.5t20.5 -50.5q0 -35 -20 -51.5t-55 -16.5t-54.5 16.5t-19.5 51.5zM325 -44
q0 -85 -35.5 -125.5t-96.5 -40.5q-31 0 -64 10l1 113q12 -3 21 -3q20 0 31 10.5t11 33.5v557h132v-555z" />
    <glyph glyph-name="Jcircumflex" unicode="&#x134;" horiz-adv-x="379" 
d="M362 700v-527q0 -92 -48 -137.5t-132 -45.5q-83 0 -129 45t-46 138v145h140v-155q0 -29 11.5 -40.5t26.5 -11.5t26 11.5t11 40.5v537h140zM197 740l46 137h97l46 -137h-73l-19 64h-5l-19 -64h-73z" />
    <glyph glyph-name="jcircumflex" unicode="&#x135;" horiz-adv-x="171" 
d="M152 -45q0 -84 -36 -124.5t-97 -40.5q-30 0 -64 9l1 114q12 -3 22 -3q19 0 30 10.5t11 33.5v556h133v-555zM-10 550l46 137h97l46 -137h-73l-19 64h-5l-19 -64h-73z" />
    <glyph glyph-name="uni0136" unicode="&#x136;" horiz-adv-x="388" 
d="M157 410h14l55 290h149l-89 -350l97 -350h-148l-64 289h-14v-289h-140v700h140v-290zM148 -40h109l-55 -137h-70z" />
    <glyph glyph-name="uni0137" unicode="&#x137;" horiz-adv-x="345" 
d="M149 331h9l57 179h131l-84 -242l89 -268h-131l-62 203h-9v-203h-133v720h133v-389zM133 -40h109l-55 -137h-70z" />
    <glyph glyph-name="kgreenlandic" unicode="&#x138;" horiz-adv-x="340" 
d="M149 331h9l52 179h131l-79 -242l84 -268h-131l-57 203h-9v-203h-133v510h133v-179z" />
    <glyph glyph-name="Lacute" unicode="&#x139;" horiz-adv-x="277" 
d="M158 701v-579h115v-122h-255v701h140zM40 740l37 137h102l-52 -137h-87z" />
    <glyph glyph-name="lacute" unicode="&#x13a;" horiz-adv-x="167" 
d="M17 720h133v-720h-133v720zM37 760l37 137h102l-52 -137h-87z" />
    <glyph glyph-name="uni013B" unicode="&#x13b;" horiz-adv-x="277" 
d="M158 701v-579h115v-122h-255v701h140zM96 -40h109l-55 -137h-70z" />
    <glyph glyph-name="uni013C" unicode="&#x13c;" horiz-adv-x="167" 
d="M17 720h133v-720h-133v720zM30 -40h109l-55 -137h-70z" />
    <glyph glyph-name="Lcaron" unicode="&#x13d;" horiz-adv-x="284" 
d="M158 701v-579h115v-122h-255v701h140zM227 700h94l-65 -245h-54z" />
    <glyph glyph-name="lcaron" unicode="&#x13e;" horiz-adv-x="167" 
d="M17 720h133v-720h-133v720zM193 720h94l-65 -245h-54z" />
    <glyph glyph-name="Ldot" unicode="&#x13f;" horiz-adv-x="277" 
d="M158 701v-579h115v-122h-255v701h140zM200 370q0 29 13 45.5t47 16.5t47 -17t13 -46q0 -28 -13 -44.5t-47 -16.5t-47 16.5t-13 45.5z" />
    <glyph glyph-name="ldot" unicode="&#x140;" horiz-adv-x="167" 
d="M17 720h133v-720h-133v720zM170 351q0 29 13 45.5t47 16.5t47 -17t13 -46q0 -28 -13 -44.5t-47 -16.5t-47 16.5t-13 45.5z" />
    <glyph glyph-name="Lslash" unicode="&#x141;" horiz-adv-x="277" 
d="M158 701v-579h115v-122h-255v701h140zM222 372l-237 -80l-25 87l237 80z" />
    <glyph glyph-name="lslash" unicode="&#x142;" horiz-adv-x="167" 
d="M17 720h133v-720h-133v720zM204 351l-224 -72l-25 85l225 72z" />
    <glyph glyph-name="Nacute" unicode="&#x143;" horiz-adv-x="403" 
d="M386 700v-700h-155l-97 457h-8l31 -457h-140v700h154l100 -460h8l-33 460h140zM154 740l37 137h102l-52 -137h-87z" />
    <glyph glyph-name="nacute" unicode="&#x144;" horiz-adv-x="365" 
d="M16 510h132v-58l10 1q30 67 92 67q42 0 71.5 -34t29.5 -104v-382h-133v363q0 19 -9 30.5t-23 11.5q-12 0 -22 -9t-16 -24v-372h-132v510zM137 550l37 137h102l-52 -137h-87z" />
    <glyph glyph-name="uni0145" unicode="&#x145;" horiz-adv-x="403" 
d="M386 700v-700h-155l-97 457h-8l31 -457h-140v700h154l100 -460h8l-33 460h140zM151 -40h109l-55 -137h-70z" />
    <glyph glyph-name="uni0146" unicode="&#x146;" horiz-adv-x="365" 
d="M16 510h132v-58l10 1q30 67 92 67q42 0 71.5 -34t29.5 -104v-382h-133v363q0 19 -9 30.5t-23 11.5q-12 0 -22 -9t-16 -24v-372h-132v510zM138 -40h109l-55 -137h-70z" />
    <glyph glyph-name="Ncaron" unicode="&#x147;" horiz-adv-x="403" 
d="M386 700v-700h-155l-97 457h-8l31 -457h-140v700h154l100 -460h8l-33 460h140zM295 878l-46 -137h-98l-46 137h74l19 -64h5l18 64h74z" />
    <glyph glyph-name="ncaron" unicode="&#x148;" horiz-adv-x="365" 
d="M16 510h132v-58l10 1q30 67 92 67q42 0 71.5 -34t29.5 -104v-382h-133v363q0 19 -9 30.5t-23 11.5q-12 0 -22 -9t-16 -24v-372h-132v510zM279 688l-46 -137h-98l-46 137h74l19 -64h5l18 64h74z" />
    <glyph glyph-name="napostrophe" unicode="&#x149;" horiz-adv-x="365" 
d="M16 510h132v-58l10 1q30 67 92 67q42 0 71.5 -34t29.5 -104v-382h-133v363q0 19 -9 30.5t-23 11.5q-12 0 -22 -9t-16 -24v-372h-132v510zM-63 700h109l-65 -245h-69z" />
    <glyph glyph-name="Eng" unicode="&#x14a;" horiz-adv-x="406" 
d="M388 700v-745q0 -85 -35.5 -125.5t-97.5 -40.5q-30 0 -63 10l1 113q9 -3 16 -3q29 0 29 44v47l-102 457h-8l31 -457h-140v700h155l100 -448h8l-34 448h140z" />
    <glyph glyph-name="eng" unicode="&#x14b;" horiz-adv-x="365" 
d="M350 -45q0 -84 -36 -124.5t-97 -40.5q-28 0 -63 9l1 114q12 -3 21 -3q19 0 30 10.5t11 33.5v409q0 19 -8.5 30.5t-22.5 11.5q-12 0 -22 -9t-16 -24v-372h-132v510h132v-58l9 1q32 67 93 67q42 0 71 -34t29 -104v-427z" />
    <glyph glyph-name="Omacron" unicode="&#x14c;" horiz-adv-x="394" 
d="M16 528q0 93 48.5 137.5t130.5 44.5q84 0 133.5 -45.5t49.5 -136.5v-355q0 -92 -49.5 -137.5t-133.5 -45.5q-82 0 -130.5 45t-48.5 138v355zM156 163q0 -29 12.5 -40.5t28.5 -11.5q17 0 29 11.5t12 40.5v374q0 29 -12 40t-29 11q-16 0 -28.5 -11t-12.5 -40v-374zM303 758
h-213v102h213v-102z" />
    <glyph glyph-name="omacron" unicode="&#x14d;" 
d="M15 351q0 37 11 68t32 53.5t52 35t71 12.5q41 0 72 -12.5t53 -35t33 -53.5t11 -68v-192q0 -37 -11 -68t-33 -53.5t-53 -35t-72 -12.5q-40 0 -71 12.5t-52 35t-32 53.5t-11 68v192zM148 151q0 -22 9.5 -34.5t25.5 -12.5t25.5 12.5t9.5 34.5v207q0 23 -9.5 35.5t-25.5 12.5
t-25.5 -12.5t-9.5 -35.5v-207zM287 568h-213v102h213v-102z" />
    <glyph glyph-name="Obreve" unicode="&#x14e;" horiz-adv-x="394" 
d="M16 528q0 93 48.5 137.5t130.5 44.5q84 0 133.5 -45.5t49.5 -136.5v-355q0 -92 -49.5 -137.5t-133.5 -45.5q-82 0 -130.5 45t-48.5 138v355zM156 163q0 -29 12.5 -40.5t28.5 -11.5q17 0 29 11.5t12 40.5v374q0 29 -12 40t-29 11q-16 0 -28.5 -11t-12.5 -40v-374zM159 877
q0 -25 8 -41t29 -16t29.5 16t8.5 41h79q0 -72 -28.5 -104.5t-88.5 -32.5t-88.5 32.5t-28.5 104.5h80z" />
    <glyph glyph-name="obreve" unicode="&#x14f;" 
d="M15 351q0 37 11 68t32 53.5t52 35t71 12.5q41 0 72 -12.5t53 -35t33 -53.5t11 -68v-192q0 -37 -11 -68t-33 -53.5t-53 -35t-72 -12.5q-40 0 -71 12.5t-52 35t-32 53.5t-11 68v192zM148 151q0 -22 9.5 -34.5t25.5 -12.5t25.5 12.5t9.5 34.5v207q0 23 -9.5 35.5t-25.5 12.5
t-25.5 -12.5t-9.5 -35.5v-207zM144 687q0 -25 8 -41t29 -16t29.5 16t8.5 41h79q0 -72 -28.5 -104.5t-88.5 -32.5t-88.5 32.5t-28.5 104.5h80z" />
    <glyph glyph-name="Ohungarumlaut" unicode="&#x150;" horiz-adv-x="394" 
d="M16 528q0 93 48.5 137.5t130.5 44.5q84 0 133.5 -45.5t49.5 -136.5v-355q0 -92 -49.5 -137.5t-133.5 -45.5q-82 0 -130.5 45t-48.5 138v355zM156 163q0 -29 12.5 -40.5t28.5 -11.5q17 0 29 11.5t12 40.5v374q0 29 -12 40t-29 11q-16 0 -28.5 -11t-12.5 -40v-374zM100 740
l37 137h80l-52 -137h-65zM204 740l37 137h80l-52 -137h-65z" />
    <glyph glyph-name="ohungarumlaut" unicode="&#x151;" 
d="M15 351q0 37 11 68t32 53.5t52 35t71 12.5q41 0 72 -12.5t53 -35t33 -53.5t11 -68v-192q0 -37 -11 -68t-33 -53.5t-53 -35t-72 -12.5q-40 0 -71 12.5t-52 35t-32 53.5t-11 68v192zM148 151q0 -22 9.5 -34.5t25.5 -12.5t25.5 12.5t9.5 34.5v207q0 23 -9.5 35.5t-25.5 12.5
t-25.5 -12.5t-9.5 -35.5v-207zM84 550l37 137h80l-52 -137h-65zM188 550l37 137h80l-52 -137h-65z" />
    <glyph glyph-name="OE" unicode="&#x152;" horiz-adv-x="494" 
d="M366 578v-150h112v-122h-112v-184h117v-122h-288q-83 0 -131 45t-48 139v334q0 93 48 137.5t131 44.5h286v-122h-115zM156 173q0 -29 13 -40t30 -11h27v456h-27q-17 0 -30 -11t-13 -40v-354z" />
    <glyph glyph-name="oe" unicode="&#x153;" horiz-adv-x="566" 
d="M15 351q0 37 11 68t32 53.5t52 35t71 12.5q32 0 56 -10t41 -28h9q17 18 40.5 28t55.5 10q78 0 123.5 -45.5t45.5 -123.5v-128h-202v-71q0 -23 9.5 -35.5t25.5 -12.5t25.5 12.5t9.5 35.5v41h132v-34q0 -78 -45.5 -123.5t-123.5 -45.5q-32 0 -55 10t-40 29h-9
q-36 -39 -98 -39q-40 0 -71 12.5t-52 35t-32 53.5t-11 68v192zM148 152q0 -23 9.5 -35.5t25.5 -12.5t25.5 12.5t9.5 35.5v207q0 23 -9.5 35t-25.5 12t-25.5 -12t-9.5 -35v-207zM350 295h70v64q0 22 -9.5 34.5t-25.5 12.5t-25.5 -12.5t-9.5 -34.5v-64z" />
    <glyph glyph-name="Racute" unicode="&#x154;" horiz-adv-x="391" 
d="M190 700q88 0 135.5 -46.5t47.5 -140.5v-5q0 -42 -9 -74t-24 -53.5t-33.5 -33.5t-36.5 -14v-10q18 -2 36.5 -14.5t33.5 -34.5t24 -53t9 -69v-10q0 -45 1.5 -79t8.5 -63h-140q-7 32 -8.5 67t-1.5 76v72q0 52 -44 52h-32v-268h-140v701h173zM157 389h32q44 0 44 54v82
q0 53 -44 53h-32v-189zM145 740l37 137h102l-52 -137h-87z" />
    <glyph glyph-name="racute" unicode="&#x155;" horiz-adv-x="275" 
d="M149 432h4q13 39 38 63.5t64 24.5q10 0 15 -1v-132q-6 1 -12.5 1.5t-12.5 0.5q-51 0 -73.5 -30t-22.5 -84v-275h-132v510h132v-78zM96 550l37 137h102l-52 -137h-87z" />
    <glyph glyph-name="uni0156" unicode="&#x156;" horiz-adv-x="391" 
d="M190 700q88 0 135.5 -46.5t47.5 -140.5v-5q0 -42 -9 -74t-24 -53.5t-33.5 -33.5t-36.5 -14v-10q18 -2 36.5 -14.5t33.5 -34.5t24 -53t9 -69v-10q0 -45 1.5 -79t8.5 -63h-140q-7 32 -8.5 67t-1.5 76v72q0 52 -44 52h-32v-268h-140v701h173zM157 389h32q44 0 44 54v82
q0 53 -44 53h-32v-189zM154 -40h109l-55 -137h-70z" />
    <glyph glyph-name="uni0157" unicode="&#x157;" horiz-adv-x="275" 
d="M149 432h4q13 39 38 63.5t64 24.5q10 0 15 -1v-132q-6 1 -12.5 1.5t-12.5 0.5q-51 0 -73.5 -30t-22.5 -84v-275h-132v510h132v-78zM36 -40h109l-55 -137h-70z" />
    <glyph glyph-name="Rcaron" unicode="&#x158;" horiz-adv-x="391" 
d="M190 700q88 0 135.5 -46.5t47.5 -140.5v-5q0 -42 -9 -74t-24 -53.5t-33.5 -33.5t-36.5 -14v-10q18 -2 36.5 -14.5t33.5 -34.5t24 -53t9 -69v-10q0 -45 1.5 -79t8.5 -63h-140q-7 32 -8.5 67t-1.5 76v72q0 52 -44 52h-32v-268h-140v701h173zM157 389h32q44 0 44 54v82
q0 53 -44 53h-32v-189zM286 878l-46 -137h-98l-46 137h74l19 -64h5l18 64h74z" />
    <glyph glyph-name="rcaron" unicode="&#x159;" horiz-adv-x="275" 
d="M149 432h4q13 39 38 63.5t64 24.5q10 0 15 -1v-132q-6 1 -12.5 1.5t-12.5 0.5q-51 0 -73.5 -30t-22.5 -84v-275h-132v510h132v-78zM238 688l-46 -137h-98l-46 137h74l19 -64h5l18 64h74z" />
    <glyph glyph-name="Sacute" unicode="&#x15a;" horiz-adv-x="394" 
d="M237 452v85q0 51 -40 51q-39 0 -39 -51v-47q0 -16 3 -27.5t12 -21.5t26.5 -20.5t46.5 -24.5l34 -15q28 -13 47 -29t30.5 -38.5t16.5 -52.5t5 -71v-16q0 -88 -48 -136t-136 -48q-87 0 -133 47t-46 137v74h140v-85q0 -51 41 -51t41 50v51q0 16 -3 27t-11.5 21t-25 20
t-43.5 23l-38 17q-28 13 -47 29.5t-30.5 39.5t-16.5 53.5t-5 71.5v12q0 89 46 136t131 47q87 0 134.5 -47.5t47.5 -135.5v-75h-140zM150 740l37 137h102l-52 -137h-87z" />
    <glyph glyph-name="sacute" unicode="&#x15b;" 
d="M216 330v28q0 47 -34 47q-15 0 -23.5 -11t-8.5 -31v-2q0 -21 9 -32t35 -20l64 -28q47 -20 69 -48.5t22 -79.5v-14q0 -30 -11.5 -57t-33 -47.5t-53 -32.5t-71.5 -12t-70.5 12.5t-51.5 34t-31.5 51.5t-10.5 65v27h133v-27q0 -22 9 -34.5t24 -12.5q16 0 25.5 11.5t9.5 30.5
v3q0 23 -9.5 33t-38.5 21l-66 27q-46 17 -66 46t-20 80v12q0 30 11 57.5t32 48t51.5 32.5t70.5 12t71 -12.5t52.5 -34t32.5 -51t11 -64.5v-28h-133zM134 550l37 137h102l-52 -137h-87z" />
    <glyph glyph-name="Scircumflex" unicode="&#x15c;" horiz-adv-x="394" 
d="M237 452v85q0 51 -40 51q-39 0 -39 -51v-47q0 -16 3 -27.5t12 -21.5t26.5 -20.5t46.5 -24.5l34 -15q28 -13 47 -29t30.5 -38.5t16.5 -52.5t5 -71v-16q0 -88 -48 -136t-136 -48q-87 0 -133 47t-46 137v74h140v-85q0 -51 41 -51t41 50v51q0 16 -3 27t-11.5 21t-25 20
t-43.5 23l-38 17q-28 13 -47 29.5t-30.5 39.5t-16.5 53.5t-5 71.5v12q0 89 46 136t131 47q87 0 134.5 -47.5t47.5 -135.5v-75h-140zM103 740l46 137h97l46 -137h-73l-19 64h-5l-19 -64h-73z" />
    <glyph glyph-name="scircumflex" unicode="&#x15d;" 
d="M216 330v28q0 47 -34 47q-15 0 -23.5 -11t-8.5 -31v-2q0 -21 9 -32t35 -20l64 -28q47 -20 69 -48.5t22 -79.5v-14q0 -30 -11.5 -57t-33 -47.5t-53 -32.5t-71.5 -12t-70.5 12.5t-51.5 34t-31.5 51.5t-10.5 65v27h133v-27q0 -22 9 -34.5t24 -12.5q16 0 25.5 11.5t9.5 30.5
v3q0 23 -9.5 33t-38.5 21l-66 27q-46 17 -66 46t-20 80v12q0 30 11 57.5t32 48t51.5 32.5t70.5 12t71 -12.5t52.5 -34t32.5 -51t11 -64.5v-28h-133zM86 550l46 137h97l46 -137h-73l-19 64h-5l-19 -64h-73z" />
    <glyph glyph-name="Scedilla" unicode="&#x15e;" horiz-adv-x="394" 
d="M237 452v85q0 51 -40 51q-39 0 -39 -51v-47q0 -16 3 -27.5t12 -21.5t26.5 -20.5t46.5 -24.5l34 -15q28 -13 47 -29t30.5 -38.5t16.5 -52.5t5 -71v-16q0 -88 -48 -136t-136 -48q-87 0 -133 47t-46 137v74h140v-85q0 -51 41 -51t41 50v51q0 16 -3 27t-11.5 21t-25 20
t-43.5 23l-38 17q-28 13 -47 29.5t-30.5 39.5t-16.5 53.5t-5 71.5v12q0 89 46 136t131 47q87 0 134.5 -47.5t47.5 -135.5v-75h-140zM193 -2h55l-6 -46q50 0 76.5 -20t26.5 -48q0 -29 -30 -52.5t-87 -23.5q-15 0 -33 2t-38 6v52q20 -5 35 -5q24 0 40.5 8.5t16.5 20.5t-19 19
t-51 7z" />
    <glyph glyph-name="scedilla" unicode="&#x15f;" 
d="M216 330v28q0 47 -34 47q-15 0 -23.5 -11t-8.5 -31v-2q0 -21 9 -32t35 -20l64 -28q47 -20 69 -48.5t22 -79.5v-14q0 -30 -11.5 -57t-33 -47.5t-53 -32.5t-71.5 -12t-70.5 12.5t-51.5 34t-31.5 51.5t-10.5 65v27h133v-27q0 -22 9 -34.5t24 -12.5q16 0 25.5 11.5t9.5 30.5
v3q0 23 -9.5 33t-38.5 21l-66 27q-46 17 -66 46t-20 80v12q0 30 11 57.5t32 48t51.5 32.5t70.5 12t71 -12.5t52.5 -34t32.5 -51t11 -64.5v-28h-133zM154 -2h55l-6 -46q50 0 76.5 -20t26.5 -48q0 -29 -30 -52.5t-87 -23.5q-15 0 -33 2t-38 6v52q20 -5 35 -5q24 0 40.5 8.5
t16.5 20.5t-19 19t-51 7z" />
    <glyph glyph-name="Scaron" unicode="&#x160;" horiz-adv-x="394" 
d="M237 452v85q0 51 -40 51q-39 0 -39 -51v-47q0 -16 3 -27.5t12 -21.5t26.5 -20.5t46.5 -24.5l34 -15q28 -13 47 -29t30.5 -38.5t16.5 -52.5t5 -71v-16q0 -88 -48 -136t-136 -48q-87 0 -133 47t-46 137v74h140v-85q0 -51 41 -51t41 50v51q0 16 -3 27t-11.5 21t-25 20
t-43.5 23l-38 17q-28 13 -47 29.5t-30.5 39.5t-16.5 53.5t-5 71.5v12q0 89 46 136t131 47q87 0 134.5 -47.5t47.5 -135.5v-75h-140zM292 878l-46 -137h-98l-46 137h74l19 -64h5l18 64h74z" />
    <glyph glyph-name="scaron" unicode="&#x161;" 
d="M216 330v28q0 47 -34 47q-15 0 -23.5 -11t-8.5 -31v-2q0 -21 9 -32t35 -20l64 -28q47 -20 69 -48.5t22 -79.5v-14q0 -30 -11.5 -57t-33 -47.5t-53 -32.5t-71.5 -12t-70.5 12.5t-51.5 34t-31.5 51.5t-10.5 65v27h133v-27q0 -22 9 -34.5t24 -12.5q16 0 25.5 11.5t9.5 30.5
v3q0 23 -9.5 33t-38.5 21l-66 27q-46 17 -66 46t-20 80v12q0 30 11 57.5t32 48t51.5 32.5t70.5 12t71 -12.5t52.5 -34t32.5 -51t11 -64.5v-28h-133zM275 688l-46 -137h-98l-46 137h74l19 -64h5l18 64h74z" />
    <glyph glyph-name="uni0162" unicode="&#x162;" horiz-adv-x="356" 
d="M351 579h-103v-578h-140v578h-102v122h345v-122zM151 6h55l-6 -46q50 0 76.5 -20t26.5 -48q0 -29 -30 -52.5t-87 -23.5q-15 0 -33 2t-38 6v52q20 -5 35 -5q24 0 40.5 8.5t16.5 20.5t-19 19t-51 7z" />
    <glyph glyph-name="uni0163" unicode="&#x163;" horiz-adv-x="271" 
d="M3 510h46v110l132 8v-118h85v-114h-85v-235q0 -30 15.5 -41.5t36.5 -11.5q15 0 33 5l2 -114q-43 -9 -80 -9q-31 0 -56.5 8t-44 27.5t-28.5 51t-10 77.5l-1 242h-45v114zM135 -2h55l-6 -46q50 0 76.5 -20t26.5 -48q0 -29 -30 -52.5t-87 -23.5q-15 0 -33 2t-38 6v52
q20 -5 35 -5q24 0 40.5 8.5t16.5 20.5t-19 19t-51 7z" />
    <glyph glyph-name="Tcaron" unicode="&#x164;" horiz-adv-x="356" 
d="M351 579h-103v-578h-140v578h-102v122h345v-122zM273 878l-46 -137h-98l-46 137h74l19 -64h5l18 64h74z" />
    <glyph glyph-name="tcaron" unicode="&#x165;" horiz-adv-x="271" 
d="M3 510h46v110l132 8v-118h85v-114h-85v-235q0 -30 15.5 -41.5t36.5 -11.5q15 0 33 5l2 -114q-43 -9 -80 -9q-31 0 -56.5 8t-44 27.5t-28.5 51t-10 77.5l-1 242h-45v114zM235 710h86l-44 -160h-62z" />
    <glyph glyph-name="Tbar" unicode="&#x166;" horiz-adv-x="356" 
d="M351 579h-103v-578h-140v578h-102v122h345v-122zM297 277h-238v92h238v-92z" />
    <glyph glyph-name="tbar" unicode="&#x167;" horiz-adv-x="271" 
d="M3 510h46v110l132 8v-118h85v-114h-85v-235q0 -30 15.5 -41.5t36.5 -11.5q15 0 33 5l2 -114q-43 -9 -80 -9q-31 0 -56.5 8t-44 27.5t-28.5 51t-10 77.5l-1 242h-45v114zM266 243h-264v77h264v-77z" />
    <glyph glyph-name="Utilde" unicode="&#x168;" horiz-adv-x="389" 
d="M156 700v-537q0 -29 12 -40.5t27 -11.5t26.5 11.5t11.5 40.5v537h140v-527q0 -92 -48.5 -137.5t-131.5 -45.5q-82 0 -129.5 45t-47.5 138v527h140zM292 859q0 -119 -50 -119q-14 0 -27 7.5t-25 21.5l-3 4q-19 21 -34 21q-19 0 -19 -37v-14h-34v14q0 58 12.5 89t38.5 31
q24 0 49 -27l4 -3q20 -22 35 -22q20 0 20 34v15h33v-15z" />
    <glyph glyph-name="utilde" unicode="&#x169;" 
d="M349 0h-133v58h-9q-32 -68 -92 -68q-42 0 -71 34t-29 104v382h133v-366q0 -19 8 -30.5t22 -11.5q12 0 22 9t16 24v375h133v-510zM277 669q0 -119 -50 -119q-14 0 -27 7.5t-25 21.5l-3 4q-19 21 -34 21q-19 0 -19 -37v-14h-34v14q0 58 12.5 89t38.5 31q24 0 49 -27l4 -3
q20 -22 35 -22q20 0 20 34v15h33v-15z" />
    <glyph glyph-name="Umacron" unicode="&#x16a;" horiz-adv-x="389" 
d="M156 700v-537q0 -29 12 -40.5t27 -11.5t26.5 11.5t11.5 40.5v537h140v-527q0 -92 -48.5 -137.5t-131.5 -45.5q-82 0 -129.5 45t-47.5 138v527h140zM302 758h-213v102h213v-102z" />
    <glyph glyph-name="umacron" unicode="&#x16b;" 
d="M349 0h-133v58h-9q-32 -68 -92 -68q-42 0 -71 34t-29 104v382h133v-366q0 -19 8 -30.5t22 -11.5q12 0 22 9t16 24v375h133v-510zM287 568h-213v102h213v-102z" />
    <glyph glyph-name="Ubreve" unicode="&#x16c;" horiz-adv-x="389" 
d="M156 700v-537q0 -29 12 -40.5t27 -11.5t26.5 11.5t11.5 40.5v537h140v-527q0 -92 -48.5 -137.5t-131.5 -45.5q-82 0 -129.5 45t-47.5 138v527h140zM158 877q0 -25 8 -41t29 -16t29.5 16t8.5 41h79q0 -72 -28.5 -104.5t-88.5 -32.5t-88.5 32.5t-28.5 104.5h80z" />
    <glyph glyph-name="ubreve" unicode="&#x16d;" 
d="M349 0h-133v58h-9q-32 -68 -92 -68q-42 0 -71 34t-29 104v382h133v-366q0 -19 8 -30.5t22 -11.5q12 0 22 9t16 24v375h133v-510zM144 687q0 -25 8 -41t29 -16t29.5 16t8.5 41h79q0 -72 -28.5 -104.5t-88.5 -32.5t-88.5 32.5t-28.5 104.5h80z" />
    <glyph glyph-name="Uring" unicode="&#x16e;" horiz-adv-x="389" 
d="M156 700v-537q0 -29 12 -40.5t27 -11.5t26.5 11.5t11.5 40.5v537h140v-527q0 -92 -48.5 -137.5t-131.5 -45.5q-82 0 -129.5 45t-47.5 138v527h140zM113 809q0 36 22 53t60 17t60.5 -17.5t22.5 -52.5q0 -36 -22 -53.5t-60 -17.5q-39 0 -61 17t-22 54zM158 809
q0 -31 38 -31q37 0 37 31q0 15 -10.5 22.5t-27.5 7.5q-37 0 -37 -30z" />
    <glyph glyph-name="uring" unicode="&#x16f;" 
d="M349 0h-133v58h-9q-32 -68 -92 -68q-42 0 -71 34t-29 104v382h133v-366q0 -19 8 -30.5t22 -11.5q12 0 22 9t16 24v375h133v-510zM98 619q0 36 22 53t60 17t60.5 -17.5t22.5 -52.5q0 -36 -22 -53.5t-60 -17.5q-39 0 -61 17t-22 54zM143 619q0 -31 38 -31q37 0 37 31
q0 15 -10.5 22.5t-27.5 7.5q-37 0 -37 -30z" />
    <glyph glyph-name="Uhungarumlaut" unicode="&#x170;" horiz-adv-x="389" 
d="M156 700v-537q0 -29 12 -40.5t27 -11.5t26.5 11.5t11.5 40.5v537h140v-527q0 -92 -48.5 -137.5t-131.5 -45.5q-82 0 -129.5 45t-47.5 138v527h140zM99 740l37 137h80l-52 -137h-65zM203 740l37 137h80l-52 -137h-65z" />
    <glyph glyph-name="uhungarumlaut" unicode="&#x171;" 
d="M349 0h-133v58h-9q-32 -68 -92 -68q-42 0 -71 34t-29 104v382h133v-366q0 -19 8 -30.5t22 -11.5q12 0 22 9t16 24v375h133v-510zM84 550l37 137h80l-52 -137h-65zM188 550l37 137h80l-52 -137h-65z" />
    <glyph glyph-name="Uogonek" unicode="&#x172;" horiz-adv-x="389" 
d="M156 700v-537q0 -29 12 -40.5t27 -11.5t26.5 11.5t11.5 40.5v537h140v-527q0 -92 -48.5 -137.5t-131.5 -45.5q-82 0 -129.5 45t-47.5 138v527h140zM262 7v-8q-30 -1 -48.5 -20t-18.5 -42q0 -18 11 -30t33 -12q6 0 12.5 1t13.5 3v-68q-31 -9 -59 -9q-48 0 -74 23.5
t-26 55.5q0 19 10 38t29.5 34t49 24.5t67.5 9.5z" />
    <glyph glyph-name="uogonek" unicode="&#x173;" 
d="M349 0h-133v58h-9q-32 -68 -92 -68q-42 0 -71 34t-29 104v382h133v-366q0 -19 8 -30.5t22 -11.5q12 0 22 9t16 24v375h133v-510zM346 7v-8q-30 -1 -48.5 -20t-18.5 -42q0 -18 11 -30t33 -12q6 0 12.5 1t13.5 3v-68q-31 -9 -59 -9q-48 0 -74 23.5t-26 55.5q0 19 10 38
t29.5 34t49 24.5t67.5 9.5z" />
    <glyph glyph-name="Wcircumflex" unicode="&#x174;" horiz-adv-x="516" 
d="M145 700l21 -460h10l36 460h92l36 -460h10l21 460h140l-66 -700h-157l-27 343h-9l-27 -343h-157l-63 700h140zM163 740l46 137h97l46 -137h-73l-19 64h-5l-19 -64h-73z" />
    <glyph glyph-name="wcircumflex" unicode="&#x175;" horiz-adv-x="501" 
d="M138 510l21 -325h10l36 325h92l36 -325h9l21 325h133l-72 -510h-142l-26 238h-10l-27 -238h-142l-72 510h133zM156 550l46 137h97l46 -137h-73l-19 64h-5l-19 -64h-73z" />
    <glyph glyph-name="Ycircumflex" unicode="&#x176;" horiz-adv-x="366" 
d="M145 700l33 -312h9l33 312h141l-110 -506v-194h-140v194l-106 506h140zM89 740l46 137h97l46 -137h-73l-19 64h-5l-19 -64h-73z" />
    <glyph glyph-name="ycircumflex" unicode="&#x177;" horiz-adv-x="365" 
d="M351 -56q0 -73 -43.5 -113.5t-122.5 -40.5q-78 0 -122.5 40.5t-44.5 112.5v25h133v-17q0 -22 9 -34.5t24 -12.5q34 0 34 49v105h-9q-33 -68 -94 -68q-41 0 -70 34t-29 104v382h133v-366q0 -19 8 -30.5t22 -11.5q12 0 22.5 9t16.5 24v375h133v-566zM87 550l46 137h97
l46 -137h-73l-19 64h-5l-19 -64h-73z" />
    <glyph glyph-name="Ydieresis" unicode="&#x178;" horiz-adv-x="366" 
d="M145 700l33 -312h9l33 312h141l-110 -506v-194h-140v194l-106 506h140zM54 808q0 29 12.5 45.5t46.5 16.5t47.5 -17t13.5 -45t-13 -44.5t-47 -16.5q-35 0 -47.5 16.5t-12.5 44.5zM192 808q0 29 12.5 45.5t46.5 16.5t47.5 -17t13.5 -45t-13 -44.5t-47 -16.5
q-35 0 -47.5 16.5t-12.5 44.5z" />
    <glyph glyph-name="Zacute" unicode="&#x179;" horiz-adv-x="345" 
d="M325 701v-123l-173 -449l6 -7h178v-122h-328v122l174 450l-6 7h-158v122h307zM126 740l37 137h102l-52 -137h-87z" />
    <glyph glyph-name="zacute" unicode="&#x17a;" horiz-adv-x="316" 
d="M12 0v113l137 274l-4 9h-127v114h277v-113l-137 -275l5 -8h141v-114h-292zM115 549l37 137h102l-52 -137h-87z" />
    <glyph glyph-name="Zdotaccent" unicode="&#x17b;" horiz-adv-x="345" 
d="M325 701v-123l-173 -449l6 -7h178v-122h-328v122l174 450l-6 7h-158v122h307zM112 809q0 28 12.5 44.5t46.5 16.5q35 0 48 -17t13 -45t-13 -44.5t-47 -16.5t-47 16.5t-13 45.5z" />
    <glyph glyph-name="zdotaccent" unicode="&#x17c;" horiz-adv-x="316" 
d="M12 0v113l137 274l-4 9h-127v114h277v-113l-137 -275l5 -8h141v-114h-292zM102 618q0 28 12.5 44.5t46.5 16.5q35 0 48 -17t13 -45t-13 -44.5t-47 -16.5t-47 16.5t-13 45.5z" />
    <glyph glyph-name="Zcaron" unicode="&#x17d;" horiz-adv-x="345" 
d="M325 701v-123l-173 -449l6 -7h178v-122h-328v122l174 450l-6 7h-158v122h307zM267 878l-46 -137h-98l-46 137h74l19 -64h5l18 64h74z" />
    <glyph glyph-name="zcaron" unicode="&#x17e;" horiz-adv-x="316" 
d="M12 0v113l137 274l-4 9h-127v114h277v-113l-137 -275l5 -8h141v-114h-292zM257 687l-46 -137h-98l-46 137h74l19 -64h5l18 64h74z" />
    <glyph glyph-name="longs" unicode="&#x17f;" horiz-adv-x="511" 
d="M18 700h474v-700h-474v700zM255 391l157 259h-313zM68 83l162 267l-162 267v-534zM442 83v534l-162 -267zM99 50h313l-157 259z" />
    <glyph glyph-name="florin" unicode="&#x192;" horiz-adv-x="324" 
d="M93 554q0 46 10.5 77.5t29 50.5t45 27t58.5 8q38 0 81 -9l-1 -113q-20 5 -36 5q-23 0 -39 -12t-16 -41v-37h91v-114h-91v-442q0 -47 -10 -78t-29 -50.5t-45.5 -27.5t-58.5 -8q-37 0 -81 9l1 113q16 -4 36 -4q23 0 39 11.5t16 41.5v435h-45v114h45v44z" />
    <glyph glyph-name="uni0237" unicode="&#x237;" horiz-adv-x="171" 
d="M152 -45q0 -84 -36 -124.5t-97 -40.5q-30 0 -64 9l1 114q12 -3 22 -3q19 0 30 10.5t11 33.5v556h133v-555z" />
    <glyph glyph-name="circumflex" unicode="&#x2c6;" horiz-adv-x="227" 
d="M19 563l46 137h97l46 -137h-73l-19 64h-5l-19 -64h-73z" />
    <glyph glyph-name="caron" unicode="&#x2c7;" horiz-adv-x="227" 
d="M208 700l-46 -137h-98l-46 137h74l19 -64h5l18 64h74z" />
    <glyph glyph-name="breve" unicode="&#x2d8;" horiz-adv-x="271" 
d="M98 700q0 -25 8 -41t29 -16t29.5 16t8.5 41h79q0 -72 -28.5 -104.5t-88.5 -32.5t-88.5 32.5t-28.5 104.5h80z" />
    <glyph glyph-name="dotaccent" unicode="&#x2d9;" horiz-adv-x="156" 
d="M18 632q0 28 12.5 44.5t46.5 16.5q35 0 48 -17t13 -45t-13 -44.5t-47 -16.5t-47 16.5t-13 45.5z" />
    <glyph glyph-name="ring" unicode="&#x2da;" horiz-adv-x="202" 
d="M18 632q0 36 22 53t60 17t60.5 -17.5t22.5 -52.5q0 -36 -22 -53.5t-60 -17.5q-39 0 -61 17t-22 54zM63 632q0 -31 38 -31q37 0 37 31q0 15 -10.5 22.5t-27.5 7.5q-37 0 -37 -30z" />
    <glyph glyph-name="ogonek" unicode="&#x2db;" horiz-adv-x="197" 
d="M175 -3v-8q-30 -1 -48.5 -20t-18.5 -42q0 -18 11 -30t33 -12q6 0 12.5 1t13.5 3v-68q-31 -9 -59 -9q-48 0 -74 23.5t-26 55.5q0 19 10 38t29.5 34t49 24.5t67.5 9.5z" />
    <glyph glyph-name="tilde" unicode="&#x2dc;" horiz-adv-x="229" 
d="M211 682q0 -119 -50 -119q-14 0 -27 7.5t-25 21.5l-3 4q-19 21 -34 21q-19 0 -19 -37v-14h-34v14q0 58 12.5 89t38.5 31q24 0 49 -27l4 -3q20 -22 35 -22q20 0 20 34v15h33v-15z" />
    <glyph glyph-name="hungarumlaut" unicode="&#x2dd;" horiz-adv-x="258" 
d="M18 563l37 137h80l-52 -137h-65zM122 563l37 137h80l-52 -137h-65z" />
    <glyph glyph-name="uni0326" unicode="&#x326;" horiz-adv-x="162" 
d="M35 -10h109l-55 -137h-70z" />
    <glyph glyph-name="uni03BC" unicode="&#x3bc;" horiz-adv-x="511" 
d="M18 700h474v-700h-474v700zM255 391l157 259h-313zM68 83l162 267l-162 267v-534zM442 83v534l-162 -267zM99 50h313l-157 259z" />
    <glyph glyph-name="endash" unicode="&#x2013;" horiz-adv-x="517" 
d="M544 278h-525v122h525v-122z" />
    <glyph glyph-name="emdash" unicode="&#x2014;" horiz-adv-x="757" 
d="M918 278h-900v122h900v-122z" />
    <glyph glyph-name="quoteleft" unicode="&#x2018;" horiz-adv-x="178" 
d="M144 416h-125l47 304h94z" />
    <glyph glyph-name="quoteright" unicode="&#x2019;" horiz-adv-x="178" 
d="M34.0088 720.025h124.992l-46.9971 -303.981h-93.9941z" />
    <glyph glyph-name="quotesinglbase" unicode="&#x201a;" horiz-adv-x="178" 
d="M35 187h125l-48 -304h-93z" />
    <glyph glyph-name="quotedblleft" unicode="&#x201c;" horiz-adv-x="328" 
d="M143 416h-125l48 304h93zM292 416h-125l48 304h93z" />
    <glyph glyph-name="quotedblright" unicode="&#x201d;" horiz-adv-x="328" 
d="M184.009 720.025h124.992l-47.9971 -303.981h-92.9941zM35.0176 720.025h124.992l-47.9971 -303.981h-92.9941z" />
    <glyph glyph-name="quotedblbase" unicode="&#x201e;" horiz-adv-x="328" 
d="M35 187h125l-48 -304h-93zM184 187h125l-48 -304h-93z" />
    <glyph glyph-name="dagger" unicode="&#x2020;" horiz-adv-x="392" 
d="M266 701v-190h108v-122h-108v-388h-140v388h-107v122h107v190h140z" />
    <glyph glyph-name="daggerdbl" unicode="&#x2021;" horiz-adv-x="392" 
d="M266 701v-168h108v-122h-108v-121h108v-122h-108v-167h-140v167h-107v122h107v121h-107v122h107v168h140z" />
    <glyph glyph-name="bullet" unicode="&#x2022;" horiz-adv-x="246" 
d="M19 367q0 50 27 77t77 27t77 -27t27 -77t-27 -77t-77 -27t-77 27t-27 77z" />
    <glyph glyph-name="ellipsis" unicode="&#x2026;" horiz-adv-x="497" 
d="M19 70q0 35 18 54.5t53 19.5q34 0 52.5 -20t18.5 -55t-18 -54.5t-53 -19.5t-53 19.5t-18 55.5zM178 70q0 35 18 54.5t53 19.5q34 0 52.5 -20t18.5 -55t-18 -54.5t-53 -19.5t-53 19.5t-18 55.5zM338 70q0 35 18 54.5t53 19.5q34 0 52.5 -20t18.5 -55t-18 -54.5t-53 -19.5
t-53 19.5t-18 55.5z" />
    <glyph glyph-name="perthousand" unicode="&#x2030;" horiz-adv-x="988" 
d="M15 541q0 37 7.5 68t24 53.5t43 35t64.5 12.5q39 0 66 -12.5t44 -35t25 -53.5t8 -68v-72q0 -37 -8 -68t-25 -53.5t-44 -35t-65 -12.5q-39 0 -65.5 12.5t-43 35t-24 53.5t-7.5 68v72zM452 700h81l-299 -700h-81zM125 439q0 -22 7 -34.5t24 -12.5t24 12.5t7 34.5v132
q0 23 -7 35.5t-24 12.5t-24 -12.5t-7 -35.5v-132zM388 231q0 37 7.5 68t24 53.5t43 35t64.5 12.5q39 0 66 -12.5t44 -35t25 -53.5t8 -68v-72q0 -37 -8 -68t-25 -53.5t-44 -35t-65 -12.5q-39 0 -65.5 12.5t-43 35t-24 53.5t-7.5 68v72zM692 231q0 37 7.5 68t24 53.5t43 35
t64.5 12.5q39 0 66 -12.5t44 -35t25 -53.5t8 -68v-72q0 -37 -8 -68t-25 -53.5t-44 -35t-65 -12.5q-39 0 -65.5 12.5t-43 35t-24 53.5t-7.5 68v72zM498 129q0 -22 7 -34.5t24 -12.5t24 12.5t7 34.5v132q0 23 -7 35.5t-24 12.5t-24 -12.5t-7 -35.5v-132zM802 129
q0 -22 7 -34.5t24 -12.5t24 12.5t7 34.5v132q0 23 -7 35.5t-24 12.5t-24 -12.5t-7 -35.5v-132z" />
    <glyph glyph-name="guilsinglleft" unicode="&#x2039;" horiz-adv-x="325" 
d="M304 78l-285 139v95l285 140l3 -124l-139 -62v-2l139 -61z" />
    <glyph glyph-name="guilsinglright" unicode="&#x203a;" horiz-adv-x="325" 
d="M21.0186 452.005l284.982 -138.991v-94.9941l-284.982 -139.992l-3 123.992l138.991 61.9971v1.99902l-138.991 60.9971z" />
    <glyph glyph-name="fraction" unicode="&#x2044;" horiz-adv-x="229" 
d="M96 0h-77l113 720h78z" />
    <glyph glyph-name="uni2074" unicode="&#x2074;" horiz-adv-x="222" 
d="M203 710v-298h-78v82h-107v216h78v-147h29v147h78z" />
    <glyph glyph-name="Euro" unicode="&#x20ac;" horiz-adv-x="471" 
d="M197 459h79v-95h-79v-28h79v-102h-79v-41q0 -25 6 -41t14.5 -25t19 -12t19.5 -3t19.5 3t19 12t14.5 25t6 41v130h140v-150q0 -91 -54.5 -137t-146.5 -46q-91 0 -144 45t-53 138v61h-41v102h41v28h-41v95h41v69q0 94 53 138.5t144 44.5q92 0 146.5 -46t54.5 -137v-150
h-140v130q0 26 -6 42t-14.5 24.5t-19 11.5t-19.5 3t-19.5 -3t-19 -11.5t-14.5 -24.5t-6 -42v-49z" />
    <glyph glyph-name="trademark" unicode="&#x2122;" horiz-adv-x="385" 
d="M144 649h-33v-229h-59v229h-33v51h125v-51zM244 700l13 -184h9l12 184h88v-280h-55l5 183h-9l-21 -183h-50l-22 183h-9l6 -183h-55v280h88z" />
    <glyph glyph-name="minus" unicode="&#x2212;" horiz-adv-x="393" 
d="M374 288h-356v102h356v-102z" />
    <glyph glyph-name="fi" unicode="&#xfb01;" horiz-adv-x="434" 
d="M45 554q0 46 10 77.5t29 50.5t45 27t58 8q38 0 80 -9l-1 -113q-9 2 -17.5 3.5t-17.5 1.5q-21 0 -37 -12t-16 -41v-37h88v-114h-88v-396h-133v396h-45v114h45v44zM274 626q0 34 20 50.5t55 16.5t55 -17t20 -50q0 -35 -19.5 -51.5t-54.5 -16.5t-55.5 16.5t-20.5 51.5z
M416 510v-510h-133v510h133z" />
    <glyph glyph-name="fl" unicode="&#xfb02;" horiz-adv-x="429" 
d="M45 554q0 46 10 77.5t29 50.5t45 27t58 8q38 0 80 -9l-1 -113q-9 2 -17.5 3.5t-17.5 1.5q-21 0 -37 -12t-16 -41v-37h88v-114h-88v-396h-133v396h-45v114h45v44zM279 720h133v-720h-133v720z" />
    <glyph glyph-name="ethbar" horiz-adv-x="239" 
d="M221 293h-203v92h203v-92z" />
    <glyph glyph-name="crossbar" horiz-adv-x="310" 
d="M285 342l-237 -80l-25 87l237 80z" />
    <glyph glyph-name="ethbar.case" horiz-adv-x="274" 
d="M256 293h-238v92h238v-92z" />
    <glyph glyph-name="crossbar.case" horiz-adv-x="310" 
d="M275 343l-224 -72l-25 85l225 72z" />
    <glyph glyph-name="commaaccent2" horiz-adv-x="157" 
d="M44 -10h94l-65 -245h-54z" />
    <glyph glyph-name="dotaccent2" horiz-adv-x="156" 
d="M18 632q0 29 13 45.5t47 16.5t47 -17t13 -46q0 -28 -13 -44.5t-47 -16.5t-47 16.5t-13 45.5z" />
    <glyph glyph-name="ogonek.case" horiz-adv-x="197" 
d="M166 -4v-8q-26 -2 -42 -21t-16 -40q0 -17 11 -29.5t33 -12.5q11 0 26 5v-69q-31 -9 -59 -9q-48 0 -74 23.5t-26 55.5q0 19 9 37t27.5 32.5t46 24t64.5 11.5z" />
    <glyph glyph-name="uni0326.case" horiz-adv-x="163" 
d="M127 -185h-108l55 136h70z" />
    <glyph glyph-name="dotaccent3" horiz-adv-x="156" 
d="M104 632q0 29 13 45.5t47 16.5t47 -17t13 -46q0 -28 -13 -44.5t-47 -16.5t-47 16.5t-13 45.5z" />
    <glyph glyph-name="commaaccent3" horiz-adv-x="172" 
d="M44 -10h109l-65 -245h-69z" />
    <glyph glyph-name="bartnew" horiz-adv-x="300" 
d="M282 301h-264v77h264v-77z" />
    <glyph glyph-name="commaaccent4" horiz-adv-x="172" 
d="M44 -10h86l-44 -160h-62z" />
    </font>
</defs>
</svg>
